<svg xmlns="http://www.w3.org/2000/svg" viewBox="0 0 511.999 511.999"><path d="M471.15 103.491a8.169 8.169 0 0 1-8.17-8.17v-8.17h-8.17a8.169 8.169 0 0 1-8.17-8.17 8.169 8.169 0 0 1 8.17-8.17h16.34a8.169 8.169 0 0 1 8.17 8.17v16.34a8.17 8.17 0 0 1-8.17 8.17zm-49.022-16.34h-16.34a8.169 8.169 0 0 1-8.17-8.17 8.169 8.169 0 0 1 8.17-8.17h16.34a8.169 8.169 0 0 1 8.17 8.17 8.168 8.168 0 0 1-8.17 8.17zm-49.021 0h-16.34a8.169 8.169 0 0 1-8.17-8.17 8.169 8.169 0 0 1 8.17-8.17h16.34a8.169 8.169 0 0 1 8.17 8.17 8.17 8.17 0 0 1-8.17 8.17zm-98.042 0h-16.34a8.169 8.169 0 0 1-8.17-8.17 8.169 8.169 0 0 1 8.17-8.17h16.34a8.169 8.169 0 0 1 8.17 8.17 8.17 8.17 0 0 1-8.17 8.17zm-49.022 0h-16.34a8.169 8.169 0 0 1-8.17-8.17 8.169 8.169 0 0 1 8.17-8.17h16.34a8.169 8.169 0 0 1 8.17 8.17 8.169 8.169 0 0 1-8.17 8.17zm-49.021 0h-16.34a8.169 8.169 0 0 1-8.17-8.17 8.169 8.169 0 0 1 8.17-8.17h16.34a8.169 8.169 0 0 1 8.17 8.17 8.17 8.17 0 0 1-8.17 8.17zm147.064 0h-16.34a8.169 8.169 0 0 1-8.17-8.17 8.169 8.169 0 0 1 8.17-8.17h16.34a8.169 8.169 0 0 1 8.17 8.17 8.17 8.17 0 0 1-8.17 8.17zm147.064 65.361a8.169 8.169 0 0 1-8.17-8.17v-16.34a8.169 8.169 0 0 1 8.17-8.17 8.169 8.169 0 0 1 8.17 8.17v16.34a8.169 8.169 0 0 1-8.17 8.17zm0 49.022a8.169 8.169 0 0 1-8.17-8.17v-16.34a8.169 8.169 0 0 1 8.17-8.17 8.169 8.169 0 0 1 8.17 8.17v16.34a8.17 8.17 0 0 1-8.17 8.17zm0 98.042a8.169 8.169 0 0 1-8.17-8.17v-16.34a8.169 8.169 0 0 1 8.17-8.17 8.169 8.169 0 0 1 8.17 8.17v16.34a8.17 8.17 0 0 1-8.17 8.17zm0 49.022a8.169 8.169 0 0 1-8.17-8.17v-16.34a8.169 8.169 0 0 1 8.17-8.17 8.169 8.169 0 0 1 8.17 8.17v16.34a8.17 8.17 0 0 1-8.17 8.17zm0 49.021a8.169 8.169 0 0 1-8.17-8.17v-16.34a8.169 8.169 0 0 1 8.17-8.17 8.169 8.169 0 0 1 8.17 8.17v16.34a8.17 8.17 0 0 1-8.17 8.17zm0-147.064a8.169 8.169 0 0 1-8.17-8.17v-16.34a8.169 8.169 0 0 1 8.17-8.17 8.169 8.169 0 0 1 8.17 8.17v16.34a8.17 8.17 0 0 1-8.17 8.17z" fill="#88acb5"/><path d="M422.128 87.151h-16.34a8.169 8.169 0 0 1-8.17-8.17 8.169 8.169 0 0 1 8.17-8.17h16.34a8.169 8.169 0 0 1 8.17 8.17 8.168 8.168 0 0 1-8.17 8.17zm49.022 65.361a8.169 8.169 0 0 1-8.17-8.17v-16.34a8.169 8.169 0 0 1 8.17-8.17 8.169 8.169 0 0 1 8.17 8.17v16.34a8.169 8.169 0 0 1-8.17 8.17zm-98.043 49.022a8.169 8.169 0 0 1-8.17-8.17v-8.17h-8.17c-4.513 0-8.17-3.657-8.17-8.17s3.657-8.17 8.17-8.17h16.34a8.169 8.169 0 0 1 8.17 8.17v16.34a8.17 8.17 0 0 1-8.17 8.17zm-49.021-16.341h-16.34c-4.513 0-8.17-3.657-8.17-8.17s3.657-8.17 8.17-8.17h16.34c4.513 0 8.17 3.657 8.17 8.17s-3.658 8.17-8.17 8.17zm-49.021 0h-16.34c-4.513 0-8.17-3.657-8.17-8.17s3.657-8.17 8.17-8.17h16.34c4.513 0 8.17 3.657 8.17 8.17s-3.658 8.17-8.17 8.17zm-98.043 0h-16.34c-4.513 0-8.17-3.657-8.17-8.17s3.657-8.17 8.17-8.17h16.34c4.513 0 8.17 3.657 8.17 8.17s-3.658 8.17-8.17 8.17zm49.021 0h-16.34c-4.513 0-8.17-3.657-8.17-8.17s3.657-8.17 8.17-8.17h16.34c4.513 0 8.17 3.657 8.17 8.17s-3.658 8.17-8.17 8.17zm147.064 65.362a8.169 8.169 0 0 1-8.17-8.17v-16.34a8.169 8.169 0 0 1 8.17-8.17 8.169 8.169 0 0 1 8.17 8.17v16.34a8.17 8.17 0 0 1-8.17 8.17zm0 49.021a8.169 8.169 0 0 1-8.17-8.17v-16.34a8.169 8.169 0 0 1 8.17-8.17 8.169 8.169 0 0 1 8.17 8.17v16.34a8.17 8.17 0 0 1-8.17 8.17zm0 98.043a8.169 8.169 0 0 1-8.17-8.17v-16.34a8.169 8.169 0 0 1 8.17-8.17 8.169 8.169 0 0 1 8.17 8.17v16.34a8.17 8.17 0 0 1-8.17 8.17zm0-49.021a8.169 8.169 0 0 1-8.17-8.17v-16.34a8.169 8.169 0 0 1 8.17-8.17 8.169 8.169 0 0 1 8.17 8.17v16.34a8.17 8.17 0 0 1-8.17 8.17z" fill="#88acb5"/><path fill="#2f5e88" d="M177.021 329.534h54.468v152.511h-54.468z"/><path fill="#367596" d="M19.065 329.534H198.81v152.511H19.065z"/><path fill="#88acb5" d="M209.703 460.257l-21.787 21.787 21.787 21.788h32.681v-43.575z"/><path fill="#a7cbcf" d="M8.171 460.257h201.532v43.574H8.171z"/><path fill="#88acb5" d="M209.703 307.747l-21.787 21.787 21.787 21.787h32.681v-43.574z"/><path fill="#a7cbcf" d="M8.171 307.747h201.532v43.574H8.171z"/><path fill="#88acb5" d="M209.703 384.002l-21.787 21.787 21.787 21.787h32.681v-43.574z"/><path fill="#a7cbcf" d="M8.171 384.002h201.532v43.574H8.171z"/><path d="M510.147 487.225c.084-.102.157-.209.235-.315.081-.109.166-.215.241-.328.081-.121.151-.246.225-.37.062-.105.129-.207.186-.316.068-.125.124-.254.184-.382.053-.113.11-.225.159-.342.052-.125.094-.253.139-.38.045-.124.093-.247.131-.375.039-.129.068-.259.1-.39.032-.129.069-.255.094-.386.031-.154.049-.308.071-.463.015-.109.036-.217.047-.327a8.252 8.252 0 0 0 0-1.618c-.011-.111-.032-.218-.047-.327-.022-.155-.04-.309-.071-.463-.026-.131-.062-.257-.094-.386-.033-.131-.061-.261-.1-.39-.038-.127-.086-.251-.131-.375-.046-.126-.087-.255-.138-.379-.048-.117-.106-.229-.159-.343-.06-.127-.117-.256-.184-.381-.058-.108-.124-.21-.186-.316-.074-.124-.144-.249-.225-.37-.075-.113-.16-.219-.241-.328-.078-.106-.151-.212-.235-.315a7.964 7.964 0 0 0-.453-.501c-.031-.032-.056-.065-.086-.096l-21.787-21.787a8.17 8.17 0 1 0-11.555 11.555l7.84 7.839H275.065a8.169 8.169 0 0 0-8.17 8.17 8.169 8.169 0 0 0 8.17 8.17h209.041l-7.84 7.839a8.17 8.17 0 1 0 11.556 11.555l21.787-21.787c.031-.031.057-.064.086-.096.155-.157.309-.321.452-.496zM57.522 24.181L35.735 2.394c-.029-.029-.061-.053-.09-.082a7.906 7.906 0 0 0-.508-.459c-.095-.078-.196-.146-.293-.219-.115-.087-.23-.176-.35-.257-.112-.075-.229-.141-.344-.209-.113-.069-.225-.139-.343-.203-.114-.061-.231-.112-.348-.168-.125-.06-.249-.122-.379-.175-.11-.046-.223-.082-.334-.123-.139-.051-.278-.103-.42-.147-.109-.033-.22-.057-.33-.085-.148-.038-.295-.08-.447-.109-.121-.024-.243-.037-.364-.056-.142-.022-.282-.047-.427-.061a8.195 8.195 0 0 0-.607-.031c-.064-.001-.127-.01-.193-.01s-.129.009-.194.01a7.71 7.71 0 0 0-.607.031c-.145.014-.284.04-.427.061-.121.019-.243.032-.364.056-.151.029-.298.071-.447.109-.11.028-.221.052-.33.085-.143.044-.28.096-.419.147-.112.04-.226.077-.336.123-.129.053-.253.115-.378.175-.117.056-.234.107-.349.168-.116.064-.227.135-.342.204-.115.069-.232.134-.344.209-.121.081-.234.17-.35.257-.098.073-.198.141-.293.219a8.48 8.48 0 0 0-.508.459c-.029.028-.061.052-.09.082L2.393 24.181a8.17 8.17 0 1 0 11.555 11.555l7.839-7.84v247.17c0 4.513 3.657 8.17 8.17 8.17s8.17-3.657 8.17-8.17V27.897l7.839 7.84a8.153 8.153 0 0 0 5.779 2.392 8.15 8.15 0 0 0 5.778-2.392 8.172 8.172 0 0 0-.001-11.556z" fill="#2f5e88"/><path d="M324.086 185.193h-16.34c-4.513 0-8.17-3.657-8.17-8.17s3.657-8.17 8.17-8.17h16.34c4.513 0 8.17 3.657 8.17 8.17s-3.658 8.17-8.17 8.17zm49.021 65.362a8.169 8.169 0 0 1-8.17-8.17v-16.34a8.169 8.169 0 0 1 8.17-8.17 8.169 8.169 0 0 1 8.17 8.17v16.34a8.17 8.17 0 0 1-8.17 8.17zM128.001 87.151h-16.34a8.169 8.169 0 0 1-8.17-8.17 8.169 8.169 0 0 1 8.17-8.17h16.34a8.169 8.169 0 0 1 8.17 8.17 8.17 8.17 0 0 1-8.17 8.17zm0 98.042h-16.34c-4.513 0-8.17-3.657-8.17-8.17s3.657-8.17 8.17-8.17h16.34c4.513 0 8.17 3.657 8.17 8.17s-3.658 8.17-8.17 8.17zM78.98 87.151H62.64a8.169 8.169 0 0 1-8.17-8.17 8.169 8.169 0 0 1 8.17-8.17h16.34a8.169 8.169 0 0 1 8.17 8.17 8.17 8.17 0 0 1-8.17 8.17zm0 98.042H62.64c-4.513 0-8.17-3.657-8.17-8.17s3.657-8.17 8.17-8.17h16.34c4.513 0 8.17 3.657 8.17 8.17s-3.658 8.17-8.17 8.17zM373.107 446.64a8.169 8.169 0 0 1-8.17-8.17v-16.34a8.169 8.169 0 0 1 8.17-8.17 8.169 8.169 0 0 1 8.17 8.17v16.34a8.17 8.17 0 0 1-8.17 8.17z" fill="#88acb5"/></svg>