<svg data-name="Layer 1" xmlns="http://www.w3.org/2000/svg" width="128" height="128" viewBox="0 0 128 128"><path d="M126.47 58.12l-26.3-45.74a11.56 11.56 0 0 0-9.86-5.88H37.7a11.55 11.55 0 0 0-9.86 5.88L1.53 58a11.48 11.48 0 0 0 0 11.44l26.3 46a11.77 11.77 0 0 0 9.86 6.09H90.3a11.73 11.73 0 0 0 9.87-6.06l26.3-45.74a11.73 11.73 0 0 0 0-11.61z" fill="#4285f4"/><path d="M100.17 115.44l17.53-30.49-37.08-37.07L64 43.43 49.07 49 43.3 64l4.64 16.73 40.77 40.77h1.59a11.73 11.73 0 0 0 9.87-6.06z" style="isolation:isolate" opacity=".07"/><g fill="#fff"><path d="M64 40.8A23.19 23.19 0 1 0 87.19 64 23.19 23.19 0 0 0 64 40.8m0 40.8A17.6 17.6 0 1 1 81.6 64 17.6 17.6 0 0 1 64 81.6"/><path d="M53 63.1v7.21a12.79 12.79 0 0 0 4.38 4.48V63.1zm8.67-6.1v19.44a11.78 11.78 0 0 0 4.38 0V57zm9.1 9.1v8.56A12.78 12.78 0 0 0 75.15 70v-3.9zm9.92 12.19l-2.4 2.41a1.09 1.09 0 0 0 0 1.53l9.11 9.11a1.09 1.09 0 0 0 1.54 0l2.4-2.4a1.09 1.09 0 0 0 0-1.53l-9.12-9.12a1.09 1.09 0 0 0-1.53 0"/></g></svg>