<svg data-name="Layer 1" xmlns="http://www.w3.org/2000/svg" xmlns:xlink="http://www.w3.org/1999/xlink" width="880.92" height="737.5" viewBox="0 0 880.92 737.5"><defs><linearGradient id="a" x1="194" y1="524" x2="194" gradientUnits="userSpaceOnUse"><stop offset="0" stop-color="gray" stop-opacity=".25"/><stop offset=".54" stop-color="gray" stop-opacity=".12"/><stop offset="1" stop-color="gray" stop-opacity=".1"/></linearGradient><linearGradient id="b" x1="256.5" y1="341" x2="256.5" y2="261" xlink:href="#a"/><linearGradient id="c" x1="698.41" y1="686.91" x2="698.41" y2="411" xlink:href="#a"/><linearGradient id="d" x1="521" y1="592.5" x2="564" y2="592.5" xlink:href="#a"/><linearGradient id="e" x1="864" y1="667" x2="864" y2="506" xlink:href="#a"/><linearGradient id="f" x1="587" y1="666" x2="587" y2="505" xlink:href="#a"/><linearGradient id="g" x1="818.5" y1="672" x2="818.5" y2="507" xlink:href="#a"/><linearGradient id="h" x1="692.5" y1="520" x2="692.5" y2="503" xlink:href="#a"/><linearGradient id="i" x1="696.5" y1="492" x2="696.5" y2="407" xlink:href="#a"/><linearGradient id="j" x1="696.5" y1="503" x2="696.5" y2="482" xlink:href="#a"/><linearGradient id="k" x1="695" y1="448" x2="695" y2="438" xlink:href="#a"/></defs><path fill="url(#a)" d="M0 0h388v524H0z"/><path fill="#fff" d="M23 8h358v506H23z"/><path fill="#f5f5f5" d="M6 8h17v506H6z"/><path fill="#e0e0e0" d="M82 383h240v6H82z"/><path fill="#69f0ae" opacity=".4" d="M82 406h240v6H82z"/><path fill="#ff0" opacity=".4" d="M82 429h240v6H82z"/><path fill="#e0e0e0" d="M82 452h240v6H82zm0 23h240v6H82z"/><path d="M161.55 89.55c.1-1.11.16-2.23.16-3.36a37.33 37.33 0 0 0-1.45-10.3l-4.35.21-2-5.48 2.81-3.07a37.72 37.72 0 0 0-8.9-10.44l-3.43 2.66-4.78-3.34.55-4.13a37.17 37.17 0 0 0-13.27-3.45L125.6 53h-5.83l-1.92-3.7a37.33 37.33 0 0 0-18.13 8.63l2 3.84-4.12 4.12-4-1.25a37.29 37.29 0 0 0-5.73 12.46l3.88 2-1 5.74-4 1.25v.09a37.25 37.25 0 0 0 2.49 13.4l4.32-.59 2.46 5.28-2.53 3.3a37.76 37.76 0 0 0 9.76 9.64l3.19-3 5.05 2.92-.18 4.18a37.28 37.28 0 0 0 12.9 2.29h.63l.92-4.25 5.81-.51 2.24 3.52a37.32 37.32 0 0 0 12.38-5.9l-1.68-4 4.47-3.75 3.84 1.59a37.45 37.45 0 0 0 6.79-11.92l-3.68-2.32 1.51-5.63zm-37.3 24.68a28 28 0 1 1 28-28 28.07 28.07 0 0 1-28 28z" fill="#8d80a4"/><path d="M207.55 158.55c.1-1.11.16-2.23.16-3.36a37.33 37.33 0 0 0-1.45-10.3l-4.35.21-2-5.48 2.81-3.07a37.72 37.72 0 0 0-8.9-10.44l-3.43 2.66-4.78-3.34.55-4.13a37.17 37.17 0 0 0-13.27-3.45L171.6 122h-5.83l-1.92-3.7a37.33 37.33 0 0 0-18.13 8.63l2 3.84-4.12 4.12-4-1.25a37.29 37.29 0 0 0-5.73 12.46l3.88 2-1 5.74-4 1.25v.09a37.25 37.25 0 0 0 2.49 13.4l4.32-.59 2.46 5.28-2.53 3.3a37.76 37.76 0 0 0 9.76 9.64l3.19-3 5.05 2.92-.18 4.18a37.28 37.28 0 0 0 12.9 2.29h.63l.92-4.25 5.81-.51 2.24 3.52a37.32 37.32 0 0 0 12.38-5.9l-1.68-4 4.47-3.75 3.84 1.59a37.45 37.45 0 0 0 6.79-11.92l-3.68-2.32 1.51-5.63zm-37.3 24.68a28 28 0 1 1 28-28 28.07 28.07 0 0 1-28 28z" fill="#8d80a4" opacity=".6"/><path d="M254.55 89.55c.1-1.11.16-2.23.16-3.36a37.33 37.33 0 0 0-1.45-10.3l-4.35.21-2-5.48 2.81-3.07a37.72 37.72 0 0 0-8.9-10.44l-3.43 2.66-4.78-3.34.55-4.13a37.17 37.17 0 0 0-13.27-3.45L218.6 53h-5.83l-1.92-3.7a37.33 37.33 0 0 0-18.13 8.63l2 3.84-4.12 4.12-4-1.25a37.29 37.29 0 0 0-5.73 12.46l3.88 2-1 5.74-4 1.25v.09a37.25 37.25 0 0 0 2.49 13.4l4.32-.59 2.46 5.28-2.53 3.3a37.76 37.76 0 0 0 9.76 9.64l3.19-3 5.05 2.92-.18 4.18a37.28 37.28 0 0 0 12.9 2.29h.63l.92-4.25 5.81-.51 2.24 3.52a37.32 37.32 0 0 0 12.38-5.9l-1.68-4 4.47-3.75 3.84 1.59a37.45 37.45 0 0 0 6.79-11.92l-3.68-2.32 1.51-5.63zm-37.3 24.68a28 28 0 1 1 28-28 28.07 28.07 0 0 1-28 28z" fill="#8d80a4" opacity=".4"/><path d="M311.55 158.55c.1-1.11.16-2.23.16-3.36a37.33 37.33 0 0 0-1.45-10.3l-4.35.21-2-5.48 2.81-3.07a37.72 37.72 0 0 0-8.9-10.44l-3.43 2.66-4.78-3.34.55-4.13a37.17 37.17 0 0 0-13.27-3.45L275.6 122h-5.83l-1.92-3.7a37.33 37.33 0 0 0-18.13 8.63l2 3.84-4.12 4.12-4-1.25a37.29 37.29 0 0 0-5.73 12.46l3.88 2-1 5.74-4 1.25v.09a37.25 37.25 0 0 0 2.49 13.4l4.32-.59 2.46 5.28-2.53 3.3a37.76 37.76 0 0 0 9.76 9.64l3.19-3 5.05 2.92-.18 4.18a37.28 37.28 0 0 0 12.9 2.29h.63l.92-4.25 5.81-.51 2.24 3.52a37.32 37.32 0 0 0 12.38-5.9l-1.68-4 4.47-3.75 3.84 1.59a37.45 37.45 0 0 0 6.79-11.92l-3.68-2.32 1.51-5.63zm-37.3 24.68a28 28 0 1 1 28-28 28.07 28.07 0 0 1-28 28z" fill="#8d80a4"/><path fill="none" stroke="#8d80a4" stroke-miterlimit="10" d="M161.25 22h-6"/><path fill="none" stroke="#8d80a4" stroke-miterlimit="10" stroke-dasharray="12.71 12.71" d="M142.54 22H72.61"/><path fill="none" stroke="#8d80a4" stroke-miterlimit="10" d="M66.25 22h-6v6"/><path fill="none" stroke="#8d80a4" stroke-miterlimit="10" stroke-dasharray="11.33 11.33" d="M60.25 39.33v85"/><path fill="none" stroke="#8d80a4" stroke-miterlimit="10" d="M60.25 130v6"/><path fill="none" stroke="#8d80a4" stroke-miterlimit="10" stroke-dasharray="12" d="M207.75 222.5h136v-119"/><path fill="url(#b)" d="M103 261h307v80H103z"/><path fill="#8d80a4" d="M106 266h300v71H106z"/><path fill="#8d80a4" d="M186 283h88v4h-88z"/><path opacity=".2" d="M186 292h88v4h-88z"/><path fill="#fff" d="M186 307h172v4H186z"/><circle cx="140" cy="301" r="19" fill="#8d80a4"/><circle cx="140" cy="301" r="19" opacity=".2"/><path d="M763.66 564a1.34 1.34 0 0 0 .18-1.54c-4.3-8.61-8.61-6.45-21.33-31.06-13.54-26.17-10.17-34.94-15.24-39.94-2-2-4.06-8.68-6.78-9.85l-1.76-7.06a9.07 9.07 0 0 0 4.67-.72c2.8-1.24 4.93-3.6 6.82-6a45.56 45.56 0 0 0 7-11.84 32.36 32.36 0 0 0 2-9.73 33.28 33.28 0 0 0-.09-5 20.09 20.09 0 0 0 8.65-3.65 15 15 0 0 0 5.48-9.85c0-.39.09-.77.11-1.16a12.11 12.11 0 0 0 0-1.38 15 15 0 0 0-6.9-11.72 19.57 19.57 0 0 0-12-2.49 52.21 52.21 0 0 0-12.15 2.99c-1 .32-2.44.73-3.75 1.3a27.77 27.77 0 0 0-8.76-1.43c-4.86 0-9.62 1.28-14.31 2.54l-15.79 4.23c-3.5.94-7.15 2-9.76 4.47a8.26 8.26 0 0 0-.65.71l-.12.15a8.84 8.84 0 0 0-.57.81c-1.56 2.52-1.9 5.86 0 8.08a9.62 9.62 0 0 0 3.39 2.34 37.8 37.8 0 0 0 4.77 1.82 26 26 0 0 0-4.49 14.64v1.78a26.09 26.09 0 0 0 26.09 26.09h.43l.76 6.12a54 54 0 0 0-8.91 12.46 13.89 13.89 0 0 0-4.37 10.76c-.05 4.34 1.13 9.65 2.28 17l-37.09-15.76-23.16 49.88 17.82 6.57c-8.37.38-13 6.5-12.93 12.73a12.32 12.32 0 0 0 3.66 9.21c6.45 6.45 14.28 73.63 14.28 73.63h3.26v7.05c-13.21.8-26.61 2.43-26.61 5.74a10.77 10.77 0 0 0 4.22 8.21c-.19-.23-.38-.48-.56-.74a14.26 14.26 0 0 0 3.38 2.57h71.75v-14.82h.12v-1.79s-2.6 0-6.64.07v-6.34h3.26c2.91-26.22-9.78-60.24-12.53-67.2 4.47 0 9.17-.06 13.83-.32 19.79.89 53.82.67 60.67-10.75 7.61-12.62 1.52-19.37-1.63-21.81zm-99.43 31.6s1.49.15 4 .34c2.69 7.67 4.68 20.27 6.09 32.57a216.36 216.36 0 0 0-10.09-32.91zm28.63-116.44a26.17 26.17 0 0 0 5.55.6h.2l.16 1.31a25.89 25.89 0 0 1-5.91-1.92zm-12.32 191.45H680v-.26s-2.33 0-6 .06v-6.33h6.52z" transform="translate(-159.54 -82)" fill="url(#c)"/><path fill="url(#d)" d="M537.03 512L521 672l19.03 1L564 512h-26.97z"/><path fill="#8d80a4" d="M538 512l-12 158h12l17-158h-17z"/><path fill="url(#e)" d="M865.16 506l15.76 161h-18.76l-15.08-161h18.08z"/><path fill="#8d80a4" d="M865 507l12 158h-12l-17-158h17z"/><path fill="url(#f)" d="M583.9 505L569 666h19.9L605 505h-21.1z"/><path fill="#8d80a4" d="M585 505l-12 158h12l17-158h-17z"/><path fill="url(#g)" d="M821.69 507L837 672h-18.31L800 507h21.69z"/><path fill="#8d80a4" d="M821 512l12 158h-12l-17-158h17z"/><path fill="url(#h)" d="M513 503h359v17H513z"/><path fill="#8d80a4" d="M516 503h288v15H516zm288 0h66v15h-66z"/><path opacity=".2" d="M804.46 503h66v15h-66z"/><path fill="url(#i)" d="M629 407h135v85H629z"/><path fill="#fff" d="M632 410h126v79H632z"/><path fill="url(#j)" d="M676 482h41v21h-41z"/><path fill="#fff" d="M677.5 482h35v21h-35z"/><path fill="#f5f5f5" d="M758 410h4v79h-4zm-46 72h3v21h-3z"/><path fill="url(#k)" d="M690 438h10v10h-10z"/><path fill="#f5f5f5" d="M691 439h8v8h-8z"/><path fill="#8d80a4" d="M499.84 430.1l65.39 27.79-22.01 41.81-64.64-23.82 21.26-45.78z"/><path fill="#f8c198" d="M502.52 563.62h17.96v14.96h-17.96zm23.95 0h17.96v14.96h-17.96z"/><circle cx="542.87" cy="376.5" r="23.94" fill="#f8c198"/><path fill="#f8c198" d="M565.31 410.92h-20.95l-2.99-23.94h17.96l5.98 23.94z"/><path d="M577.35 476.83s12 6 3 21-68.84 9-68.84 9 15 35.91 12 62.85h-23.98S492.35 508 486.46 502c-7.63-7.63-1.86-22.22 13.11-19.23s77.78-5.94 77.78-5.94z" fill="#263238"/><path d="M516.41 506.22s10.52 1 23.39 1.17c-9.34.1-18-.38-23.22-.75zm-5.24-23.37c23.37-.45 66.18-6.56 66.18-6.56a9 9 0 0 1 .9.55c-12.19 1.66-49.19 6.43-67.08 6.01zm-12.96-.8c-10.19 1.55-13.34 13-6.88 19.45 5.92 5.92 13.11 67.57 13.11 67.57h-4.9s-7.19-61.65-13.08-67.57c-7.44-7.4-2.22-21.35 11.75-19.45z" opacity=".2" fill="#fff"/><path d="M526.46 575.59s-47.89 0-47.89 6 6 9 6 9h41.89z" fill="#263238"/><path d="M526 575.36V577c-8.34.06-46.25.65-46.25 6a9.13 9.13 0 0 0 2.24 5.9 9.89 9.89 0 0 1-3.88-7.53c0-6.01 47.89-6.01 47.89-6.01z" fill="#fff" opacity=".2"/><path d="M601.29 476.83s12 6 3 21-68.84 9-68.84 9 15 35.91 12 62.85h-23.99s-3-62.85-12-68.84-3-21 12-18 77.83-6.01 77.83-6.01zm-50.83 98.76s-47.89 0-47.89 6 6 9 6 9h41.89z" fill="#263238"/><path d="M561.1 402h7.28c2.87 0 4.92 7.2 7 9.22 4.66 4.59 1.56 12.63 14 36.65 11.68 22.58 15.63 20.61 19.58 28.5s-70.5 7.53-70.5 7.53 3.79-15.12 3-26.21c-1.64-22.79-7.56-30.68.34-38.58-.02 0 8.45-17.11 19.3-17.11z" fill="#ff5252"/><path fill="#fff" d="M501.47 441.54l-9.81 21.26 6.54 3.27 9.81-21.26-6.54-3.27z"/><path d="M542.87 354.2a24.23 24.23 0 0 1 2.45.12 23.94 23.94 0 0 0 0 47.64 24.23 24.23 0 0 1-2.45.12 23.945 23.945 0 1 1 0-47.89z" fill="#fff" opacity=".2"/><path d="M516.75 350.31c2.4-2.3 5.75-3.24 9-4.1l14.49-3.88c4.31-1.15 8.67-2.32 13.13-2.33a25.48 25.48 0 0 1 8 1.31c1.2-.52 2.55-.9 3.44-1.19a47.91 47.91 0 0 1 11.11-2.68 18 18 0 0 1 11 2.29 13.55 13.55 0 0 1 1.19 22.12 18.43 18.43 0 0 1-7.93 3.35 30.08 30.08 0 0 1-1.72 13.47 41.81 41.81 0 0 1-6.39 10.87c-1.73 2.21-3.69 4.37-6.26 5.51s-5.88 1-7.86-1c-1.46-1.47-2-3.63-2.33-5.67-1.51-8.08-3-17.37-10-21.68-4.39-2.7-9.28-2.44-14.18-2.41a29.55 29.55 0 0 1-12.71-2.91 8.83 8.83 0 0 1-3.18-2.14c-2.2-2.52-1.2-6.63 1.2-8.93z" fill="#fccc63"/><path d="M586.95 343a18 18 0 0 0-11-2.29 47.91 47.91 0 0 0-11.11 2.68c-.89.3-2.24.67-3.44 1.19a25.48 25.48 0 0 0-8-1.31c-4.46 0-8.82 1.17-13.13 2.33l-14.49 3.88c-3.21.86-6.56 1.8-9 4.1a8.12 8.12 0 0 0-2.19 3.86 7.54 7.54 0 0 1 2.19-7.13c2.4-2.3 5.75-3.24 9-4.1l14.49-3.88c4.31-1.15 8.67-2.32 13.13-2.33a25.48 25.48 0 0 1 8 1.31c1.2-.52 2.55-.9 3.44-1.19a47.91 47.91 0 0 1 11.11-2.68 18 18 0 0 1 11 2.29 13.79 13.79 0 0 1 6.33 10.75 13 13 0 0 1-.11 2.33 13.79 13.79 0 0 0-6.22-9.81zm-6.61 25.44v1.31c0-.43 0-.85-.09-1.28zM541.46 458c-1.64-22.79-7.56-30.68.34-38.58 0 0 8.46-17.11 19.32-17.11h7.28a3.33 3.33 0 0 1 2.4 1.63h-4.77c-10.86 0-19.32 17.11-19.32 17.11-7.9 7.9-2 15.79-.34 38.58.64 8.89-1.67 20.37-2.61 24.57h-5.29s3.77-15.12 2.99-26.2z" opacity=".2" fill="#fff"/><path fill="#ff5252" d="M570.14 443.18h-26.16V425.2h26.16z"/><path d="M535.12 482.85c23.37-.45 66.18-6.56 66.18-6.56a9 9 0 0 1 .9.55c-12.2 1.66-49.19 6.43-67.08 6.01zm-12.91-.79c-10.26 1.56-13.42 13.09-5.8 18.17 9 6 12 68.84 12 68.84h-4.95s-3-62.85-12-68.84c-8.68-5.81-3.28-20.09 10.75-18.17zm18.14 24.16s10.52 1 23.39 1.17c-9.34.1-18-.38-23.22-.75z" opacity=".2" fill="#fff"/><path d="M568.37 437.92v28.63a18.28 18.28 0 0 1-19 18.28c-12.65-.49-27.24-.68-28.91 1-1.39 1.39-4.7 4.06-7.86 6.52a4.64 4.64 0 0 1-7.47-4.1c.4-4.81 1.91-9.93 6.34-11.4 3.57-1.19 10-1.91 16.38-2.34a21 21 0 0 0 19.53-21v-15.59z" fill="#f8c198"/><path d="M505.16 488.23c.4-4.81 1.91-9.93 6.34-11.4 3.57-1.19 10-1.91 16.38-2.34a21 21 0 0 0 19.53-21v-15.57h21v1.63h-17.72v15.57a21 21 0 0 1-19.53 21c-6.42.43-12.82 1.15-16.38 2.34-4.43 1.48-5.95 6.6-6.34 11.4a4.62 4.62 0 0 0 1.11 3.44 4.67 4.67 0 0 1-4.39-5.07zm45.36 87.13V577c-8.34.06-46.25.65-46.25 6a9.13 9.13 0 0 0 2.24 5.9 9.89 9.89 0 0 1-3.88-7.53c0-6.01 47.89-6.01 47.89-6.01z" fill="#fff" opacity=".2"/><path fill="none" stroke="#8d80a4" stroke-miterlimit="10" stroke-width="3" opacity=".5" d="M233 518v218h385V452h11"/></svg>