<?xml version="1.0" encoding="iso-8859-1"?>
<!-- Generator: Adobe Illustrator 19.0.0, SVG Export Plug-In . SVG Version: 6.00 Build 0)  -->
<svg version="1.1" id="Layer_1" xmlns="http://www.w3.org/2000/svg" xmlns:xlink="http://www.w3.org/1999/xlink" x="0px" y="0px"
	 viewBox="0 0 511.999 511.999" style="enable-background:new 0 0 511.999 511.999;" xml:space="preserve">
<path style="fill:#88ACB5;" d="M471.15,103.491c-4.513,0-8.17-3.657-8.17-8.17v-8.17h-8.17c-4.513,0-8.17-3.657-8.17-8.17
	c0-4.513,3.657-8.17,8.17-8.17h16.34c4.513,0,8.17,3.657,8.17,8.17v16.34C479.32,99.834,475.662,103.491,471.15,103.491z"/>
<path id="SVGCleanerId_0" style="fill:#88ACB5;" d="M422.128,87.151h-16.34c-4.513,0-8.17-3.657-8.17-8.17
	c0-4.513,3.657-8.17,8.17-8.17h16.34c4.513,0,8.17,3.657,8.17,8.17C430.299,83.494,426.641,87.151,422.128,87.151z"/>
<g>
	<path style="fill:#88ACB5;" d="M373.107,87.151h-16.34c-4.513,0-8.17-3.657-8.17-8.17c0-4.513,3.657-8.17,8.17-8.17h16.34
		c4.513,0,8.17,3.657,8.17,8.17C381.277,83.494,377.619,87.151,373.107,87.151z"/>
	<path style="fill:#88ACB5;" d="M275.065,87.151h-16.34c-4.513,0-8.17-3.657-8.17-8.17c0-4.513,3.657-8.17,8.17-8.17h16.34
		c4.513,0,8.17,3.657,8.17,8.17C283.235,83.494,279.577,87.151,275.065,87.151z"/>
	<path style="fill:#88ACB5;" d="M226.043,87.151h-16.34c-4.513,0-8.17-3.657-8.17-8.17c0-4.513,3.657-8.17,8.17-8.17h16.34
		c4.513,0,8.17,3.657,8.17,8.17C234.214,83.494,230.555,87.151,226.043,87.151z"/>
	<path style="fill:#88ACB5;" d="M177.022,87.151h-16.34c-4.513,0-8.17-3.657-8.17-8.17c0-4.513,3.657-8.17,8.17-8.17h16.34
		c4.513,0,8.17,3.657,8.17,8.17C185.192,83.494,181.534,87.151,177.022,87.151z"/>
	<path style="fill:#88ACB5;" d="M324.086,87.151h-16.34c-4.513,0-8.17-3.657-8.17-8.17c0-4.513,3.657-8.17,8.17-8.17h16.34
		c4.513,0,8.17,3.657,8.17,8.17C332.256,83.494,328.598,87.151,324.086,87.151z"/>
</g>
<path id="SVGCleanerId_1" style="fill:#88ACB5;" d="M471.15,152.512c-4.513,0-8.17-3.657-8.17-8.17v-16.34
	c0-4.513,3.657-8.17,8.17-8.17c4.513,0,8.17,3.657,8.17,8.17v16.34C479.32,148.856,475.662,152.512,471.15,152.512z"/>
<g>
	<path style="fill:#88ACB5;" d="M471.15,201.534c-4.513,0-8.17-3.657-8.17-8.17v-16.34c0-4.513,3.657-8.17,8.17-8.17
		c4.513,0,8.17,3.657,8.17,8.17v16.34C479.32,197.877,475.662,201.534,471.15,201.534z"/>
	<path style="fill:#88ACB5;" d="M471.15,299.576c-4.513,0-8.17-3.657-8.17-8.17v-16.34c0-4.513,3.657-8.17,8.17-8.17
		c4.513,0,8.17,3.657,8.17,8.17v16.34C479.32,295.919,475.662,299.576,471.15,299.576z"/>
	<path style="fill:#88ACB5;" d="M471.15,348.598c-4.513,0-8.17-3.657-8.17-8.17v-16.34c0-4.513,3.657-8.17,8.17-8.17
		c4.513,0,8.17,3.657,8.17,8.17v16.34C479.32,344.941,475.662,348.598,471.15,348.598z"/>
	<path style="fill:#88ACB5;" d="M471.15,397.619c-4.513,0-8.17-3.657-8.17-8.17v-16.34c0-4.513,3.657-8.17,8.17-8.17
		c4.513,0,8.17,3.657,8.17,8.17v16.34C479.32,393.962,475.662,397.619,471.15,397.619z"/>
	<path style="fill:#88ACB5;" d="M471.15,250.555c-4.513,0-8.17-3.657-8.17-8.17v-16.34c0-4.513,3.657-8.17,8.17-8.17
		c4.513,0,8.17,3.657,8.17,8.17v16.34C479.32,246.898,475.662,250.555,471.15,250.555z"/>
</g>
<g>
	<path id="SVGCleanerId_0_1_" style="fill:#88ACB5;" d="M422.128,87.151h-16.34c-4.513,0-8.17-3.657-8.17-8.17
		c0-4.513,3.657-8.17,8.17-8.17h16.34c4.513,0,8.17,3.657,8.17,8.17C430.299,83.494,426.641,87.151,422.128,87.151z"/>
</g>
<g>
	<path id="SVGCleanerId_1_1_" style="fill:#88ACB5;" d="M471.15,152.512c-4.513,0-8.17-3.657-8.17-8.17v-16.34
		c0-4.513,3.657-8.17,8.17-8.17c4.513,0,8.17,3.657,8.17,8.17v16.34C479.32,148.856,475.662,152.512,471.15,152.512z"/>
</g>
<path style="fill:#88ACB5;" d="M373.107,201.534c-4.513,0-8.17-3.657-8.17-8.17v-8.17h-8.17c-4.513,0-8.17-3.657-8.17-8.17
	s3.657-8.17,8.17-8.17h16.34c4.513,0,8.17,3.657,8.17,8.17v16.34C381.277,197.877,377.619,201.534,373.107,201.534z"/>
<path id="SVGCleanerId_2" style="fill:#88ACB5;" d="M324.086,185.193h-16.34c-4.513,0-8.17-3.657-8.17-8.17s3.657-8.17,8.17-8.17
	h16.34c4.513,0,8.17,3.657,8.17,8.17S328.598,185.193,324.086,185.193z"/>
<g>
	<path style="fill:#88ACB5;" d="M275.065,185.193h-16.34c-4.513,0-8.17-3.657-8.17-8.17s3.657-8.17,8.17-8.17h16.34
		c4.513,0,8.17,3.657,8.17,8.17S279.577,185.193,275.065,185.193z"/>
	<path style="fill:#88ACB5;" d="M177.022,185.193h-16.34c-4.513,0-8.17-3.657-8.17-8.17s3.657-8.17,8.17-8.17h16.34
		c4.513,0,8.17,3.657,8.17,8.17S181.534,185.193,177.022,185.193z"/>
	<path style="fill:#88ACB5;" d="M226.043,185.193h-16.34c-4.513,0-8.17-3.657-8.17-8.17s3.657-8.17,8.17-8.17h16.34
		c4.513,0,8.17,3.657,8.17,8.17S230.555,185.193,226.043,185.193z"/>
</g>
<path id="SVGCleanerId_3" style="fill:#88ACB5;" d="M373.107,250.555c-4.513,0-8.17-3.657-8.17-8.17v-16.34
	c0-4.513,3.657-8.17,8.17-8.17c4.513,0,8.17,3.657,8.17,8.17v16.34C381.277,246.898,377.619,250.555,373.107,250.555z"/>
<g>
	<path style="fill:#88ACB5;" d="M373.107,299.576c-4.513,0-8.17-3.657-8.17-8.17v-16.34c0-4.513,3.657-8.17,8.17-8.17
		c4.513,0,8.17,3.657,8.17,8.17v16.34C381.277,295.919,377.619,299.576,373.107,299.576z"/>
	<path style="fill:#88ACB5;" d="M373.107,397.619c-4.513,0-8.17-3.657-8.17-8.17v-16.34c0-4.513,3.657-8.17,8.17-8.17
		c4.513,0,8.17,3.657,8.17,8.17v16.34C381.277,393.962,377.619,397.619,373.107,397.619z"/>
	<path style="fill:#88ACB5;" d="M373.107,348.598c-4.513,0-8.17-3.657-8.17-8.17v-16.34c0-4.513,3.657-8.17,8.17-8.17
		c4.513,0,8.17,3.657,8.17,8.17v16.34C381.277,344.941,377.619,348.598,373.107,348.598z"/>
</g>
<rect x="177.021" y="329.534" style="fill:#2F5E88;" width="54.468" height="152.511"/>
<rect x="19.065" y="329.534" style="fill:#367596;" width="179.745" height="152.511"/>
<polygon style="fill:#88ACB5;" points="209.703,460.257 187.916,482.044 209.703,503.832 242.384,503.832 242.384,460.257 "/>
<rect x="8.171" y="460.257" style="fill:#A7CBCF;" width="201.532" height="43.574"/>
<polygon style="fill:#88ACB5;" points="209.703,307.747 187.916,329.534 209.703,351.321 242.384,351.321 242.384,307.747 "/>
<rect x="8.171" y="307.747" style="fill:#A7CBCF;" width="201.532" height="43.574"/>
<polygon style="fill:#88ACB5;" points="209.703,384.002 187.916,405.789 209.703,427.576 242.384,427.576 242.384,384.002 "/>
<rect x="8.171" y="384.002" style="fill:#A7CBCF;" width="201.532" height="43.574"/>
<g>
	<path style="fill:#2F5E88;" d="M510.147,487.225c0.084-0.102,0.157-0.209,0.235-0.315c0.081-0.109,0.166-0.215,0.241-0.328
		c0.081-0.121,0.151-0.246,0.225-0.37c0.062-0.105,0.129-0.207,0.186-0.316c0.068-0.125,0.124-0.254,0.184-0.382
		c0.053-0.113,0.11-0.225,0.159-0.342c0.052-0.125,0.094-0.253,0.139-0.38c0.045-0.124,0.093-0.247,0.131-0.375
		c0.039-0.129,0.068-0.259,0.1-0.39c0.032-0.129,0.069-0.255,0.094-0.386c0.031-0.154,0.049-0.308,0.071-0.463
		c0.015-0.109,0.036-0.217,0.047-0.327c0.053-0.538,0.053-1.08,0-1.618c-0.011-0.111-0.032-0.218-0.047-0.327
		c-0.022-0.155-0.04-0.309-0.071-0.463c-0.026-0.131-0.062-0.257-0.094-0.386c-0.033-0.131-0.061-0.261-0.1-0.39
		c-0.038-0.127-0.086-0.251-0.131-0.375c-0.046-0.126-0.087-0.255-0.138-0.379c-0.048-0.117-0.106-0.229-0.159-0.343
		c-0.06-0.127-0.117-0.256-0.184-0.381c-0.058-0.108-0.124-0.21-0.186-0.316c-0.074-0.124-0.144-0.249-0.225-0.37
		c-0.075-0.113-0.16-0.219-0.241-0.328c-0.078-0.106-0.151-0.212-0.235-0.315c-0.143-0.174-0.296-0.34-0.453-0.501
		c-0.031-0.032-0.056-0.065-0.086-0.096l-21.787-21.787c-3.192-3.19-8.364-3.19-11.555,0c-3.191,3.192-3.191,8.364,0,11.555
		l7.84,7.839H275.065c-4.513,0-8.17,3.657-8.17,8.17c0,4.513,3.657,8.17,8.17,8.17h209.041l-7.84,7.839
		c-3.191,3.192-3.191,8.364,0,11.555c1.596,1.595,3.688,2.392,5.778,2.392s4.182-0.797,5.778-2.392l21.787-21.787
		c0.031-0.031,0.057-0.064,0.086-0.096C509.85,487.564,510.004,487.4,510.147,487.225z"/>
	<path style="fill:#2F5E88;" d="M57.522,24.181L35.735,2.394c-0.029-0.029-0.061-0.053-0.09-0.082
		c-0.163-0.159-0.331-0.314-0.508-0.459c-0.095-0.078-0.196-0.146-0.293-0.219c-0.115-0.087-0.23-0.176-0.35-0.257
		c-0.112-0.075-0.229-0.141-0.344-0.209c-0.113-0.069-0.225-0.139-0.343-0.203c-0.114-0.061-0.231-0.112-0.348-0.168
		c-0.125-0.06-0.249-0.122-0.379-0.175c-0.11-0.046-0.223-0.082-0.334-0.123c-0.139-0.051-0.278-0.103-0.42-0.147
		c-0.109-0.033-0.22-0.057-0.33-0.085c-0.148-0.038-0.295-0.08-0.447-0.109c-0.121-0.024-0.243-0.037-0.364-0.056
		c-0.142-0.022-0.282-0.047-0.427-0.061c-0.202-0.02-0.404-0.026-0.607-0.031c-0.064-0.001-0.127-0.01-0.193-0.01
		s-0.129,0.009-0.194,0.01c-0.203,0.004-0.404,0.011-0.607,0.031c-0.145,0.014-0.284,0.04-0.427,0.061
		c-0.121,0.019-0.243,0.032-0.364,0.056c-0.151,0.029-0.298,0.071-0.447,0.109c-0.11,0.028-0.221,0.052-0.33,0.085
		c-0.143,0.044-0.28,0.096-0.419,0.147c-0.112,0.04-0.226,0.077-0.336,0.123c-0.129,0.053-0.253,0.115-0.378,0.175
		c-0.117,0.056-0.234,0.107-0.349,0.168C25.991,1.029,25.88,1.1,25.765,1.169c-0.115,0.069-0.232,0.134-0.344,0.209
		c-0.121,0.081-0.234,0.17-0.35,0.257c-0.098,0.073-0.198,0.141-0.293,0.219c-0.176,0.145-0.344,0.3-0.508,0.459
		c-0.029,0.028-0.061,0.052-0.09,0.082L2.393,24.181c-3.191,3.192-3.191,8.364,0,11.555c3.192,3.19,8.364,3.19,11.555,0l7.839-7.84
		v247.17c0,4.513,3.657,8.17,8.17,8.17s8.17-3.657,8.17-8.17V27.897l7.839,7.84c1.597,1.595,3.689,2.392,5.779,2.392
		c2.09,0,4.182-0.797,5.778-2.392C60.713,32.545,60.713,27.373,57.522,24.181z"/>
</g>
<g>
	<path id="SVGCleanerId_2_1_" style="fill:#88ACB5;" d="M324.086,185.193h-16.34c-4.513,0-8.17-3.657-8.17-8.17
		s3.657-8.17,8.17-8.17h16.34c4.513,0,8.17,3.657,8.17,8.17S328.598,185.193,324.086,185.193z"/>
</g>
<g>
	<path id="SVGCleanerId_3_1_" style="fill:#88ACB5;" d="M373.107,250.555c-4.513,0-8.17-3.657-8.17-8.17v-16.34
		c0-4.513,3.657-8.17,8.17-8.17c4.513,0,8.17,3.657,8.17,8.17v16.34C381.277,246.898,377.619,250.555,373.107,250.555z"/>
</g>
<g>
	<path style="fill:#88ACB5;" d="M128.001,87.151h-16.34c-4.513,0-8.17-3.657-8.17-8.17c0-4.513,3.657-8.17,8.17-8.17h16.34
		c4.513,0,8.17,3.657,8.17,8.17C136.171,83.494,132.513,87.151,128.001,87.151z"/>
	<path style="fill:#88ACB5;" d="M128.001,185.193h-16.34c-4.513,0-8.17-3.657-8.17-8.17s3.657-8.17,8.17-8.17h16.34
		c4.513,0,8.17,3.657,8.17,8.17S132.513,185.193,128.001,185.193z"/>
	<path style="fill:#88ACB5;" d="M78.98,87.151h-16.34c-4.513,0-8.17-3.657-8.17-8.17c0-4.513,3.657-8.17,8.17-8.17h16.34
		c4.513,0,8.17,3.657,8.17,8.17C87.15,83.494,83.492,87.151,78.98,87.151z"/>
	<path style="fill:#88ACB5;" d="M78.98,185.193h-16.34c-4.513,0-8.17-3.657-8.17-8.17s3.657-8.17,8.17-8.17h16.34
		c4.513,0,8.17,3.657,8.17,8.17S83.492,185.193,78.98,185.193z"/>
	<path style="fill:#88ACB5;" d="M373.107,446.64c-4.513,0-8.17-3.657-8.17-8.17v-16.34c0-4.513,3.657-8.17,8.17-8.17
		c4.513,0,8.17,3.657,8.17,8.17v16.34C381.277,442.983,377.619,446.64,373.107,446.64z"/>
</g>
<g>
</g>
<g>
</g>
<g>
</g>
<g>
</g>
<g>
</g>
<g>
</g>
<g>
</g>
<g>
</g>
<g>
</g>
<g>
</g>
<g>
</g>
<g>
</g>
<g>
</g>
<g>
</g>
<g>
</g>
</svg>
