<svg height="512pt" viewBox="0 0 512 512" width="512pt" xmlns="http://www.w3.org/2000/svg"><path d="m215.882812 219.214844h-89.164062c-4.167969 0-7.546875 3.378906-7.546875 7.550781v53.890625c0 4.167969 3.378906 7.550781 7.546875 7.550781h89.164062c4.171876 0 7.546876-3.382812 7.546876-7.550781v-53.890625c0-4.171875-3.378907-7.550781-7.546876-7.550781zm0 0" fill="#d0cfd1"/><path d="m321.339844 0h-300.078125c-11.722657 0-21.261719 9.539062-21.261719 21.261719v212.828125c0 11.722656 9.539062 21.261718 21.261719 21.261718h300.078125c11.722656 0 21.261718-9.539062 21.261718-21.261718v-212.828125c0-11.722657-9.539062-21.261719-21.261718-21.261719zm0 0" fill="#fff4f1"/><path d="m321.339844 0h-24.15625c11.726562 0 21.265625 9.539062 21.265625 21.261719v212.828125c0 11.722656-9.539063 21.261718-21.265625 21.261718h24.15625c11.722656 0 21.261718-9.539062 21.261718-21.261718v-212.828125c0-11.722657-9.539062-21.261719-21.261718-21.261719zm0 0" fill="#ecedef"/><path d="m342.601562 49.664062v-28.402343c0-11.722657-9.539062-21.261719-21.261718-21.261719h-300.078125c-11.722657 0-21.261719 9.539062-21.261719 21.261719v28.402343zm0 0" fill="#f9cd45"/><path d="m321.339844 0h-24.15625c11.726562 0 21.265625 9.539062 21.265625 21.261719v28.402343h24.152343v-28.402343c0-11.722657-9.539062-21.261719-21.261718-21.261719zm0 0" fill="#f8c03c"/><path d="m0 205.6875v28.402344c0 11.722656 9.539062 21.261718 21.261719 21.261718h300.078125c11.722656 0 21.261718-9.539062 21.261718-21.261718v-28.402344zm0 0" fill="#f9cd45"/><path d="m250.03125 279.117188c-3.882812-3.988282-9.421875-6.007813-16.460938-6.007813h-124.46875c-7.199218 0-12.828124 2.050781-16.726562 6.09375-6.207031 6.433594-5.867188 15.65625-5.644531 21.761719.054687 1.484375.105469 2.890625.046875 3.816406-.132813 2.078125.601562 4.121094 2.027344 5.644531 1.429687 1.519531 3.421874 2.382813 5.507812 2.382813h154.050781c2.085938 0 4.078125-.863282 5.507813-2.386719 1.425781-1.519531 2.160156-3.5625 2.027344-5.644531-.058594-.917969-.023438-2.277344.015624-3.714844.15625-6.167969.402344-15.496094-5.882812-21.945312zm0 0" fill="#c1c1c1"/><path d="m78.167969 133.796875h-24.707031c-4.167969 0-7.546876-3.382813-7.546876-7.550781 0-4.167969 3.378907-7.546875 7.546876-7.546875h24.707031c4.171875 0 7.550781 3.378906 7.550781 7.546875 0 4.167968-3.382812 7.550781-7.550781 7.550781zm0 0" fill="#d0cfd1"/><path d="m151.769531 133.796875h-24.707031c-4.171875 0-7.546875-3.382813-7.546875-7.550781 0-4.167969 3.375-7.546875 7.546875-7.546875h24.707031c4.167969 0 7.546875 3.378906 7.546875 7.546875 0 4.167968-3.378906 7.550781-7.546875 7.550781zm0 0" fill="#d0cfd1"/><path d="m219.203125 133.796875h-24.707031c-4.167969 0-7.546875-3.382813-7.546875-7.550781 0-4.167969 3.378906-7.546875 7.546875-7.546875h24.707031c4.167969 0 7.546875 3.378906 7.546875 7.546875 0 4.167968-3.378906 7.550781-7.546875 7.550781zm0 0" fill="#d0cfd1"/><path d="m289.140625 133.796875h-24.707031c-4.167969 0-7.546875-3.382813-7.546875-7.550781 0-4.167969 3.378906-7.546875 7.546875-7.546875h24.707031c4.171875 0 7.550781 3.378906 7.550781 7.546875 0 4.167968-3.382812 7.550781-7.550781 7.550781zm0 0" fill="#d0cfd1"/><path d="m431.789062 28.558594c-37.660156 0-68.300781 30.636718-68.300781 68.296875 0 37.660156 30.640625 68.296875 68.300781 68.296875 37.65625 0 68.296876-30.636719 68.296876-68.296875 0-37.660157-30.640626-68.296875-68.296876-68.296875zm0 0" fill="#00bf9e"/><path d="m431.789062 28.558594c-4.125 0-8.15625.386718-12.078124 1.089844 31.914062 5.722656 56.21875 33.667968 56.21875 67.207031 0 33.539062-24.304688 61.484375-56.21875 67.207031 3.921874.703125 7.953124 1.089844 12.078124 1.089844 37.65625 0 68.296876-30.636719 68.296876-68.296875 0-37.660157-30.640626-68.296875-68.296876-68.296875zm0 0" fill="#00a983"/><path d="m425.929688 118.429688c-.085938 0-.171876 0-.257813-.003907-2.199219-.078125-4.253906-1.105469-5.628906-2.820312l-14.1875-17.671875c-2.609375-3.25-2.089844-8 1.160156-10.613282 3.25-2.609374 8-2.089843 10.613281 1.160157l8.703125 10.839843 19.957031-21.613281c2.828126-3.058593 7.601563-3.25 10.664063-.421875s3.253906 7.601563.425781 10.667969l-25.902344 28.046875c-1.429687 1.550781-3.441406 2.429688-5.546874 2.429688zm0 0" fill="#fff4f1"/><path d="m106.996094 98.03125h-16.316406c-11.0625 0-20.0625 8.996094-20.0625 20.058594v16.316406c0 11.058594 9 20.058594 20.0625 20.058594h16.316406c11.058594 0 20.058594-9 20.058594-20.058594v-16.316406c0-11.0625-9-20.058594-20.058594-20.058594zm0 0" fill="#d0cfd1"/><path d="m180.59375 98.03125h-16.316406c-11.058594 0-20.058594 8.996094-20.058594 20.058594v16.316406c0 11.058594 9 20.058594 20.058594 20.058594h16.316406c11.0625 0 20.0625-9 20.0625-20.058594v-16.316406c0-11.0625-9-20.058594-20.0625-20.058594zm0 0" fill="#d0cfd1"/><path d="m250.535156 98.03125h-16.316406c-11.0625 0-20.058594 8.996094-20.058594 20.058594v16.316406c0 11.058594 8.996094 20.058594 20.058594 20.058594h16.316406c11.058594 0 20.058594-9 20.058594-20.058594v-16.316406c0-11.0625-9-20.058594-20.058594-20.058594zm0 0" fill="#d0cfd1"/><path d="m106.996094 98.03125h-16.316406c-1.34375 0-2.652344.136719-3.921876.390625 9.191407 1.828125 16.140626 9.949219 16.140626 19.667969v16.316406c0 9.71875-6.949219 17.839844-16.140626 19.667969 1.269532.253906 2.578126.390625 3.921876.390625h16.316406c11.058594 0 20.058594-9 20.058594-20.058594v-16.316406c0-11.0625-9-20.058594-20.058594-20.058594zm0 0" fill="#c4c3c4"/><path d="m180.59375 98.03125h-16.316406c-1.339844 0-2.648438.136719-3.917969.390625 9.1875 1.828125 16.140625 9.949219 16.140625 19.667969v16.316406c0 9.71875-6.953125 17.839844-16.140625 19.667969 1.269531.253906 2.578125.390625 3.917969.390625h16.316406c11.0625 0 20.0625-9 20.0625-20.058594v-16.316406c0-11.0625-9-20.058594-20.0625-20.058594zm0 0" fill="#c4c3c4"/><path d="m250.535156 98.03125h-16.316406c-1.339844 0-2.652344.136719-3.921875.390625 9.191406 1.828125 16.140625 9.949219 16.140625 19.667969v16.316406c0 9.71875-6.949219 17.839844-16.140625 19.667969 1.269531.253906 2.582031.390625 3.921875.390625h16.316406c11.058594 0 20.058594-9 20.058594-20.058594v-16.316406c0-11.0625-9-20.058594-20.058594-20.058594zm0 0" fill="#c4c3c4"/><path d="m384.820312 419.414062h-89.164062c-4.171875 0-7.546875 3.378907-7.546875 7.546876v53.894531c0 4.167969 3.375 7.546875 7.546875 7.546875h89.164062c4.167969 0 7.546876-3.378906 7.546876-7.546875v-53.894531c0-4.167969-3.378907-7.546876-7.546876-7.546876zm0 0" fill="#d0cfd1"/><path d="m490.277344 200.199219h-300.078125c-11.722657 0-21.261719 9.535156-21.261719 21.261719v212.824218c0 11.726563 9.539062 21.261719 21.261719 21.261719h300.078125c11.722656 0 21.261718-9.535156 21.261718-21.261719v-212.824218c0-11.726563-9.539062-21.261719-21.261718-21.261719zm0 0" fill="#fff4f1"/><path d="m490.277344 200.199219h-24.15625c11.722656 0 21.261718 9.535156 21.261718 21.261719v212.824218c0 11.726563-9.539062 21.261719-21.261718 21.261719h24.15625c11.722656 0 21.261718-9.535156 21.261718-21.261719v-212.824218c0-11.726563-9.539062-21.261719-21.261718-21.261719zm0 0" fill="#ecedef"/><path d="m511.539062 249.859375v-28.398437c0-11.722657-9.539062-21.261719-21.261718-21.261719h-300.078125c-11.722657 0-21.261719 9.539062-21.261719 21.261719v28.398437zm0 0" fill="#4890e3"/><path d="m490.277344 200.199219h-24.15625c11.722656 0 21.261718 9.535156 21.261718 21.261719v28.398437h24.15625v-28.398437c0-11.726563-9.539062-21.261719-21.261718-21.261719zm0 0" fill="#2970d6"/><path d="m168.9375 405.886719v28.398437c0 11.726563 9.539062 21.261719 21.261719 21.261719h300.078125c11.722656 0 21.261718-9.535156 21.261718-21.261719v-28.398437zm0 0" fill="#4890e3"/><path d="m487.382812 434.285156c0 11.726563-9.539062 21.261719-21.261718 21.261719h24.15625c11.722656 0 21.261718-9.535156 21.261718-21.261719v-28.398437h-24.15625zm0 0" fill="#2970d6"/><path d="m418.964844 478.308594c-3.882813-3.988282-9.421875-6.007813-16.457032-6.007813h-124.46875c-7.203124 0-12.828124 2.046875-16.726562 6.089844-6.207031 6.4375-5.871094 15.660156-5.644531 21.761719.054687 1.488281.105469 2.890625.046875 3.816406-.136719 2.082031.601562 4.125 2.027344 5.648438 1.425781 1.519531 3.417968 2.382812 5.503906 2.382812h154.054687c2.085938 0 4.078125-.863281 5.503907-2.386719 1.429687-1.519531 2.160156-3.5625 2.027343-5.644531-.058593-.921875-.019531-2.277344.015625-3.714844.160156-6.167968.402344-15.496094-5.882812-21.945312zm0 0" fill="#c1c1c1"/><path d="m418.964844 478.308594c-3.882813-3.988282-9.421875-6.007813-16.457032-6.007813h-23.148437c7.035156 0 12.574219 2.019531 16.457031 6.007813 6.285156 6.449218 6.042969 15.777344 5.882813 21.945312-.039063 1.4375-.074219 2.796875-.015625 3.714844.132812 2.082031-.601563 4.125-2.027344 5.648438-1.429688 1.519531-3.421875 2.382812-5.507812 2.382812h23.148437c2.085937 0 4.078125-.863281 5.507813-2.382812 1.425781-1.523438 2.160156-3.566407 2.027343-5.648438-.058593-.917969-.023437-2.277344.015625-3.714844.160156-6.167968.402344-15.496094-5.882812-21.945312zm0 0" fill="#a9a8a9"/><g fill="#d0cfd1"><path d="m247.105469 333.992188h-24.707031c-4.171876 0-7.550782-3.378907-7.550782-7.546876 0-4.167968 3.378906-7.550781 7.550782-7.550781h24.707031c4.167969 0 7.546875 3.382813 7.546875 7.550781 0 4.167969-3.378906 7.546876-7.546875 7.546876zm0 0"/><path d="m320.703125 333.992188h-24.707031c-4.167969 0-7.546875-3.378907-7.546875-7.546876 0-4.167968 3.378906-7.550781 7.546875-7.550781h24.707031c4.171875 0 7.550781 3.382813 7.550781 7.550781 0 4.167969-3.378906 7.546876-7.550781 7.546876zm0 0"/><path d="m388.136719 333.992188h-24.703125c-4.171875 0-7.550782-3.378907-7.550782-7.546876 0-4.167968 3.378907-7.550781 7.550782-7.550781h24.703125c4.171875 0 7.550781 3.382813 7.550781 7.550781 0 4.167969-3.378906 7.546876-7.550781 7.546876zm0 0"/><path d="m458.078125 333.992188h-24.707031c-4.171875 0-7.550782-3.378907-7.550782-7.546876 0-4.167968 3.378907-7.550781 7.550782-7.550781h24.707031c4.167969 0 7.546875 3.382813 7.546875 7.550781 0 4.167969-3.378906 7.546876-7.546875 7.546876zm0 0"/><path d="m275.929688 298.226562h-16.316407c-11.058593 0-20.058593 9-20.058593 20.0625v16.3125c0 11.0625 8.996093 20.0625 20.058593 20.0625h16.316407c11.0625 0 20.058593-9 20.058593-20.0625v-16.3125c0-11.0625-8.996093-20.0625-20.058593-20.0625zm0 0"/><path d="m349.53125 298.226562h-16.316406c-11.0625 0-20.058594 9-20.058594 20.0625v16.3125c0 11.0625 8.996094 20.0625 20.058594 20.0625h16.316406c11.058594 0 20.058594-9 20.058594-20.0625v-16.3125c0-11.0625-9-20.0625-20.058594-20.0625zm0 0"/><path d="m419.46875 298.226562h-16.316406c-11.058594 0-20.058594 9-20.058594 20.0625v16.3125c0 11.0625 8.996094 20.0625 20.058594 20.0625h16.316406c11.0625 0 20.058594-9 20.058594-20.0625v-16.3125c0-11.0625-8.996094-20.0625-20.058594-20.0625zm0 0"/></g><path d="m275.929688 298.226562h-16.316407c-1.339843 0-2.648437.140626-3.917969.390626 9.1875 1.828124 16.140626 9.949218 16.140626 19.671874v16.3125c0 9.71875-6.953126 17.839844-16.140626 19.671876 1.265626.25 2.578126.390624 3.917969.390624h16.316407c11.0625 0 20.058593-9 20.058593-20.0625v-16.3125c0-11.0625-8.996093-20.0625-20.058593-20.0625zm0 0" fill="#c4c3c4"/><path d="m349.53125 298.226562h-16.316406c-1.339844 0-2.652344.140626-3.921875.390626 9.191406 1.828124 16.140625 9.949218 16.140625 19.671874v16.3125c0 9.71875-6.949219 17.839844-16.140625 19.671876 1.269531.25 2.582031.390624 3.921875.390624h16.316406c11.058594 0 20.058594-9 20.058594-20.0625v-16.3125c0-11.0625-9-20.0625-20.058594-20.0625zm0 0" fill="#c4c3c4"/><path d="m419.46875 298.226562h-16.316406c-1.339844 0-2.648438.140626-3.917969.390626 9.1875 1.828124 16.136719 9.949218 16.136719 19.671874v16.3125c0 9.71875-6.949219 17.839844-16.136719 19.671876 1.265625.25 2.578125.390624 3.917969.390624h16.316406c11.0625 0 20.058594-9 20.058594-20.0625v-16.3125c0-11.0625-8.996094-20.0625-20.058594-20.0625zm0 0" fill="#c4c3c4"/></svg>