<svg height="464pt" viewBox="0 0 464.61593 464" width="464pt" xmlns="http://www.w3.org/2000/svg"><path d="m396.675781 113.191406c-13.75-61.789062-66.242187-107.351562-129.347656-112.277344-63.109375-4.929687-122.035156 31.933594-145.210937 90.835938-44.757813-12.652344-92.152344 8.597656-112.472657 50.4375-20.320312 41.839844-7.722656 92.230469 29.898438 119.585938 37.617187 27.355468 89.433593 23.804687 122.972656-8.421876 50.863281 43.761719 125.265625 46.421876 179.121094 6.398438 27.480469 17.503906 62.832031 16.59375 89.375-2.300781s38.972656-52 31.429687-83.695313c-7.542968-31.699218-33.554687-55.652344-65.765625-60.5625zm0 0" fill="#4891d3"/><path d="m384.117188 112.070312c-27.210938 0-52.558594 13.832032-67.28125 36.71875 31.660156-20.359374 73.226562-15.898437 99.84375 10.71875 26.617187 26.613282 31.078124 68.183594 10.71875 99.84375 29.847656-19.207031 43.476562-55.78125 33.46875-89.835937-10.007813-34.054687-41.253907-57.445313-76.75-57.445313zm0 0" fill="#57b7eb"/><path d="m355.558594 117.429688c9.105468-3.542969 18.789062-5.359376 28.558594-5.359376 4.210937.003907 8.414062.378907 12.558593 1.121094-12.238281-55.300781-55.757812-98.289062-111.199219-109.851562-55.445312-11.5625-112.519531 10.453125-145.839843 56.25 35.125-25.46875 79.863281-33.738282 121.773437-22.515625 41.910156 11.222656 76.527344 40.742187 94.226563 80.355469zm0 0" fill="#57b7eb"/><path d="m80.117188 120.070312c30.058593.019532 58.371093 14.121094 76.5 38.09375 18.128906 23.976563 23.984374 55.058594 15.820312 83.984376 23.585938-30.714844 26.40625-72.59375 7.152344-106.191407-19.253906-33.601562-56.808594-52.34375-95.234375-47.527343-38.425781 4.816406-70.195313 32.246093-80.558594 69.558593 18.128906-23.855469 46.355469-37.882812 76.320313-37.917969zm0 0" fill="#57b7eb"/><path d="m376.117188 272.070312c0 79.527344-64.472657 144-144 144-79.53125 0-144-64.472656-144-144 0-79.53125 64.46875-144 144-144 79.527343 0 144 64.46875 144 144zm0 0" fill="#f9e109"/><path d="m256.117188 368.070312c-45.085938-.03125-87.554688-21.179687-114.75-57.144531-27.199219-35.960937-35.980469-82.585937-23.730469-125.976562-35.378907 46.074219-39.609375 108.890625-10.730469 159.292969 28.878906 50.402343 85.214844 78.515624 142.851562 71.289062 57.640626-7.222656 105.292969-48.371094 120.839844-104.339844-27.191406 35.785156-69.535156 56.824219-114.480468 56.878906zm0 0" fill="#fcbc04"/><path d="m272.117188 209.828125-40 40-39.601563-40c-6.25-6.25-16.386719-6.25-22.640625 0-6.25 6.253906-6.25 16.390625 0 22.640625l40 40-40 40c-6.25 6.253906-6.25 16.390625 0 22.640625 6.253906 6.253906 16.390625 6.253906 22.640625 0l39.601563-40 40 40c6.363281 6.140625 16.5 5.960937 22.640624-.398437 6.140626-6.363282 5.960938-16.5-.402343-22.640626l-40-40 40-40c4.347656-6.355468 3.554687-14.90625-1.890625-20.347656-5.445313-5.445312-13.992188-6.242187-20.347656-1.894531zm0 0" fill="#7ab92d"/><path d="m96.117188 416.070312c0 26.507813-21.492188 48-48 48-26.511719 0-48-21.492187-48-48 0-26.511718 21.488281-48 48-48 26.507812 0 48 21.488282 48 48zm0 0" fill="#a1d51c"/><path d="m64.117188 448.070312c-17.339844-.015624-33.328126-9.382812-41.816407-24.503906s-8.160156-33.644531.855469-48.457031c-17.054688 10.324219-25.949219 30.117187-22.351562 49.722656 3.597656 19.609375 18.941406 34.953125 38.546874 38.550781 19.609376 3.597657 39.402344-5.296874 49.726563-22.351562-7.519531 4.589844-16.152344 7.027344-24.960937 7.039062zm0 0" fill="#7ab92d"/><path d="m48.117188 344.070312c4.417968 0 8-3.582031 8-8v-32c0-4.417968-3.582032-8-8-8-4.417969 0-8 3.582032-8 8v32c0 4.417969 3.582031 8 8 8zm0 0" fill="#fcbc04"/><path d="m432.117188 368.070312c0 4.417969-3.582032 8-8 8-4.417969 0-8-3.582031-8-8 0-4.417968 3.582031-8 8-8 4.417968 0 8 3.582032 8 8zm0 0" fill="#a1d51c"/><path d="m424.117188 344.070312c4.417968 0 8-3.582031 8-8v-40c0-4.417968-3.582032-8-8-8-4.417969 0-8 3.582032-8 8v40c0 4.417969 3.582031 8 8 8zm0 0" fill="#a1d51c"/><g fill="#fcbc04"><path d="m65.078125 399.109375c-3.121094-3.101563-8.160156-3.101563-11.28125 0l-5.679687 5.679687-5.679688-5.679687c-3.175781-2.71875-7.90625-2.535156-10.859375.421875-2.957031 2.953125-3.140625 7.683594-.421875 10.859375l5.679688 5.679687-5.679688 5.679688c-3.101562 3.121094-3.101562 8.160156 0 11.28125 3.121094 3.101562 8.160156 3.101562 11.28125 0l5.679688-5.679688 5.679687 5.679688c3.121094 3.101562 8.160156 3.101562 11.28125 0 3.101563-3.121094 3.101563-8.160156 0-11.28125l-5.679687-5.679688 5.679687-5.679687c3.101563-3.121094 3.101563-8.160156 0-11.28125zm0 0"/><path d="m435.398438 411.351562 5.679687-5.601562c1.511719-1.503906 2.363281-3.546875 2.363281-5.679688 0-2.132812-.851562-4.179687-2.363281-5.679687-3.121094-3.101563-8.160156-3.101563-11.28125 0l-5.679687 5.679687-5.679688-5.679687c-3.121094-3.101563-8.160156-3.101563-11.28125 0-1.515625 1.5-2.367188 3.546875-2.367188 5.679687 0 2.132813.851563 4.175782 2.367188 5.679688l5.679688 5.601562-5.679688 5.679688c-3.136719 3.113281-3.15625 8.183594-.039062 11.320312 3.113281 3.136719 8.183593 3.152344 11.320312.039063l5.679688-5.679687 5.679687 5.679687c3.136719 3.113281 8.203125 3.097656 11.320313-.039063 3.113281-3.136718 3.097656-8.207031-.039063-11.320312zm0 0"/><path d="m168.117188 448.070312h-48c-4.417969 0-8 3.582032-8 8 0 4.417969 3.582031 8 8 8h48c4.417968 0 8-3.582031 8-8 0-4.417968-3.582032-8-8-8zm0 0"/><path d="m232.117188 432.070312c-4.417969 0-8 3.582032-8 8v8h-16c-4.417969 0-8 3.582032-8 8 0 4.417969 3.582031 8 8 8h24c4.417968 0 8-3.582031 8-8v-16c0-4.417968-3.582032-8-8-8zm0 0"/></g><path d="m384.117188 400.070312h-32c-4.417969 0-8 3.582032-8 8 0 4.417969 3.582031 8 8 8h32c4.417968 0 8-3.582031 8-8 0-4.417968-3.582032-8-8-8zm0 0" fill="#a1d51c"/></svg>