<svg height="511pt" viewBox="1 -1 511.999 511" width="511pt" xmlns="http://www.w3.org/2000/svg"><path d="m395.167969.5h-387.648438c-4.152343 0-7.519531 3.367188-7.519531 7.519531v68.550781c0 4.152344 3.367188 7.519532 7.519531 7.519532h387.648438c4.152343 0 7.519531-3.367188 7.519531-7.519532v-68.550781c0-4.152343-3.367188-7.519531-7.519531-7.519531zm0 0" fill="#91bcee"/><path d="m395.167969.5h-24.070313c4.15625 0 7.523438 3.367188 7.523438 7.519531v68.550781c0 4.152344-3.367188 7.519532-7.523438 7.519532h24.070313c4.152343 0 7.519531-3.367188 7.519531-7.519532v-68.550781c0-4.152343-3.367188-7.519531-7.519531-7.519531zm0 0" fill="#4890e3"/><path d="m128.640625 38.703125h-121.121094c-4.152343 0-7.519531 3.367187-7.519531 7.519531v30.347656c0 4.152344 3.367188 7.519532 7.519531 7.519532h121.121094c4.152344 0 7.519531-3.367188 7.519531-7.519532v-30.347656c0-4.152344-3.367187-7.519531-7.519531-7.519531zm0 0" fill="#2970d6"/><path d="m282.71875 38.703125h-121.117188c-4.15625 0-7.523437 3.367187-7.523437 7.519531v30.347656c0 4.152344 3.367187 7.519532 7.523437 7.519532h121.117188c4.152344 0 7.519531-3.367188 7.519531-7.519532v-30.347656c0-4.152344-3.367187-7.519531-7.519531-7.519531zm0 0" fill="#2970d6"/><path d="m0 76.75v258.933594c0 4.152344 3.367188 7.519531 7.519531 7.519531h387.648438c4.152343 0 7.519531-3.367187 7.519531-7.519531v-258.933594zm0 0" fill="#d0cfd1"/><path d="m378.621094 76.75v258.933594c0 4.152344-3.367188 7.519531-7.523438 7.519531h24.070313c4.152343 0 7.519531-3.367187 7.519531-7.519531v-258.933594zm0 0" fill="#b0afb1"/><path d="m279.472656 198.605469h-5.394531c-.582031-5.734375-1.832031-11.335938-3.746094-16.753907l4.886719-2.3125c3.753906-1.777343 5.355469-6.261718 3.578125-10.015624-6.921875-14.628907-17.804687-26.96875-31.476563-35.679688-1.683593-1.070312-3.722656-1.433594-5.671874-1-1.945313.433594-3.640626 1.621094-4.714844 3.300781l-2.90625 4.566407c-6.257813-3.125-12.953125-5.34375-19.84375-6.574219l.394531-5.394531c.300781-4.144532-2.8125-7.746094-6.953125-8.046876-2.085938-.152343-4.203125-.230468-6.292969-.230468-14.035156 0-27.964843 3.472656-40.28125 10.046875-1.761719.9375-3.078125 2.539062-3.65625 4.445312-.582031 1.910157-.378906 3.96875.558594 5.730469l2.546875 4.773438c-5.789062 3.910156-11.011719 8.640624-15.476562 14.015624l-4.496094-3.007812c-1.65625-1.109375-3.6875-1.511719-5.644532-1.128906-1.957031.390625-3.675781 1.539062-4.785156 3.195312-9.011718 13.46875-13.992187 29.167969-14.402344 45.402344-.105468 4.152344 3.175782 7.601562 7.328126 7.707031l5.394531.136719c.53125 7.03125 2.054687 13.851562 4.558593 20.390625l-4.824218 2.4375c-3.707032 1.875-5.195313 6.394531-3.320313 10.105469 7.296875 14.449218 18.496094 26.503906 32.382813 34.859375 1.707031 1.027343 3.753906 1.335937 5.691406.851562 1.933594-.480469 3.601562-1.710937 4.628906-3.421875l2.792969-4.636718c6.328125 2.960937 13.082031 5.003906 20 6.058593l-.253906 5.40625c-.195313 4.148438 3.007812 7.667969 7.15625 7.867188 1.355469.0625 2.734375.09375 4.101562.09375 14.796875 0 29.394531-3.839844 42.210938-11.109375 1.734375-.984375 3.007812-2.613282 3.539062-4.539063.53125-1.921875.273438-3.976562-.707031-5.710937l-2.671875-4.707032c5.6875-4.054687 10.789063-8.917968 15.113281-14.40625l4.570313 2.890626c3.511719 2.222656 8.160156 1.175781 10.378906-2.335938 8.652344-13.679688 13.226563-29.5 13.226563-45.746094.003906-4.15625-3.363282-7.523437-7.519532-7.523437zm0 0" fill="#f45a3c"/><path d="m201.332031 165.667969c-22.3125 0-40.460937 18.148437-40.460937 40.460937 0 22.308594 18.148437 40.460938 40.460937 40.460938 22.308594 0 40.457031-18.152344 40.457031-40.460938 0-22.3125-18.148437-40.460937-40.457031-40.460937zm0 0" fill="#fff4f1"/><path d="m395.167969 339.863281c-64.425781 0-116.835938 52.414063-116.835938 116.835938v45.71875c0 4.15625 3.367188 7.523437 7.519531 7.523437h218.625c4.15625 0 7.523438-3.367187 7.523438-7.523437v-45.71875c0-64.421875-52.410156-116.835938-116.832031-116.835938zm0 0" fill="#4890e3"/><path d="m395.167969 339.863281c-4.0625 0-8.078125.210938-12.035157.617188 58.789063 6.042969 104.800782 55.859375 104.800782 116.21875v45.71875c0 4.15625-3.367188 7.523437-7.523438 7.523437h24.066406c4.15625 0 7.523438-3.367187 7.523438-7.523437v-45.71875c0-64.421875-52.410156-116.835938-116.832031-116.835938zm0 0" fill="#2970d6"/><path d="m395.167969 210.023438c-39.351563 0-71.367188 37.183593-71.367188 82.890624 0 45.710938 32.015625 82.894532 71.367188 82.894532 39.347656 0 71.363281-37.183594 71.363281-82.894532 0-45.707031-32.015625-82.890624-71.363281-82.890624zm0 0" fill="#f0bca6"/><path d="m395.167969 210.023438c-4.105469 0-8.121094.425781-12.035157 1.199218 33.636719 6.667969 59.332032 40.75 59.332032 81.691406 0 40.945313-25.695313 75.027344-59.332032 81.695313 3.914063.773437 7.929688 1.199219 12.035157 1.199219 39.347656 0 71.363281-37.183594 71.363281-82.894532 0-45.707031-32.015625-82.890624-71.363281-82.890624zm0 0" fill="#e3ac90"/><path d="m456.351562 200.257812c-16.453124-16.070312-38.183593-24.917968-61.183593-24.917968-23.007813 0-44.734375 8.847656-61.191407 24.917968-16.417968 16.035157-25.789062 37.492188-26.378906 60.417969-.050781 2.027344.71875 3.988281 2.132813 5.441407 1.417969 1.453124 3.359375 2.269531 5.386719 2.269531h160.09375c2.03125 0 3.972656-.816407 5.386718-2.269531 1.417969-1.453126 2.183594-3.414063 2.132813-5.441407-.585938-22.925781-9.957031-44.382812-26.378907-60.417969zm0 0" fill="#f9cd45"/><path d="m456.351562 200.257812c-16.453124-16.070312-38.183593-24.917968-61.183593-24.917968-4.0625 0-8.078125.289062-12.035157.832031 18.472657 2.527344 35.605469 10.851563 49.152344 24.085937 16.421875 16.035157 25.789063 37.492188 26.378906 60.417969.054688 2.027344-.714843 3.988281-2.128906 5.441407-1.417968 1.453124-3.359375 2.269531-5.386718 2.269531h24.066406c2.027344 0 3.96875-.816407 5.386718-2.269531 1.414063-1.453126 2.183594-3.414063 2.132813-5.441407-.589844-22.925781-9.960937-44.382812-26.382813-60.417969zm0 0" fill="#f8c03c"/><path d="m408.324219 160.1875h-26.316407c-7.742187 0-14.046874 6.300781-14.046874 14.046875v84.03125c0 7.746094 6.304687 14.046875 14.046874 14.046875h26.316407c7.746093 0 14.046875-6.300781 14.046875-14.046875v-84.03125c0-7.746094-6.300782-14.046875-14.046875-14.046875zm0 0" fill="#f9e075"/><path d="m408.324219 160.1875h-23.066407c7.746094 0 14.046876 6.300781 14.046876 14.046875v84.03125c0 7.746094-6.300782 14.046875-14.046876 14.046875h23.066407c7.746093 0 14.046875-6.300781 14.046875-14.046875v-84.03125c0-7.746094-6.300782-14.046875-14.046875-14.046875zm0 0" fill="#f8c03c"/><path d="m478.96875 236.09375h-167.605469c-9.125 0-16.546875 7.421875-16.546875 16.546875v21.316406c0 9.121094 7.421875 16.546875 16.546875 16.546875h167.605469c9.125 0 16.546875-7.425781 16.546875-16.546875v-21.316406c0-9.125-7.421875-16.546875-16.546875-16.546875zm0 0" fill="#f9e075"/><path d="m478.96875 236.09375h-24.066406c9.125 0 16.546875 7.421875 16.546875 16.546875v21.316406c0 9.121094-7.421875 16.546875-16.546875 16.546875h24.066406c9.125 0 16.546875-7.425781 16.546875-16.546875v-21.316406c0-9.125-7.421875-16.546875-16.546875-16.546875zm0 0" fill="#f9cd45"/></svg>