<?xml version="1.0" encoding="iso-8859-1"?>
<!-- Generator: Adobe Illustrator 19.0.0, SVG Export Plug-In . SVG Version: 6.00 Build 0)  -->
<svg version="1.1" id="Capa_1" xmlns="http://www.w3.org/2000/svg" xmlns:xlink="http://www.w3.org/1999/xlink" x="0px" y="0px"
	 viewBox="0 0 512 512" style="enable-background:new 0 0 512 512;" xml:space="preserve">
<rect y="67.665" style="fill:#DBF1FB;" width="512" height="376.67"/>
<rect x="256" y="67.665" style="fill:#B7E4F8;" width="256" height="376.67"/>
<rect y="67.665" style="fill:#838286;" width="512" height="90"/>
<rect x="53.33" y="97.665" style="fill:#FFDB2D;" width="30" height="30"/>
<rect x="102.33" y="97.665" style="fill:#6FC8F1;" width="30" height="30"/>
<rect x="151.33" y="97.665" style="fill:#56C745;" width="30" height="30"/>
<g>
	<rect x="256" y="67.665" style="fill:#57575A;" width="256" height="90"/>
	<path style="fill:#57575A;" d="M181.682,278.356c-2.99-1.8-6.09-3.399-9.288-4.803c-2.71-1.196-5.737-2.325-9.081-3.375
		s-6.628-1.574-9.825-1.574c-2.6,0-4.675,0.403-6.225,1.202c-1.55,0.799-2.319,2.148-2.319,4.046c0,1.404,0.452,2.551,1.343,3.454
		c0.903,0.897,2.209,1.721,3.906,2.472c1.697,0.751,3.771,1.477,6.225,2.172c2.453,0.702,5.224,1.556,8.324,2.551
		c4.894,1.501,9.325,3.149,13.267,4.949c3.954,1.8,7.323,3.924,10.13,6.377c2.795,2.447,4.943,5.425,6.444,8.922
		c1.501,3.503,2.246,7.75,2.246,12.749c0,6.402-1.172,11.772-3.515,16.123c-2.356,4.351-5.456,7.824-9.3,10.423
		c-3.857,2.6-8.202,4.473-13.047,5.627c-4.858,1.147-9.728,1.721-14.622,1.721c-3.906,0-7.897-0.299-11.998-0.897
		c-4.101-0.604-8.178-1.452-12.23-2.551c-4.052-1.098-7.946-2.398-11.693-3.9c-3.747-1.501-7.226-3.198-10.423-5.102l12.596-25.643
		c3.503,2.197,7.152,4.15,10.948,5.846c3.198,1.501,6.823,2.85,10.875,4.052s8.178,1.8,12.376,1.8c3.198,0,5.419-0.427,6.664-1.276
		c1.257-0.848,1.88-1.971,1.88-3.375c0-1.501-0.622-2.777-1.88-3.826c-1.245-1.05-2.966-1.971-5.175-2.771
		c-2.197-0.799-4.723-1.599-7.567-2.404c-2.856-0.799-5.871-1.745-9.068-2.85c-4.711-1.593-8.751-3.32-12.156-5.169
		c-3.393-1.849-6.2-3.948-8.397-6.304c-2.197-2.343-3.82-5.022-4.87-8.019c-1.05-3.003-1.575-6.451-1.575-10.35
		c0-5.901,1.074-11.101,3.222-15.598c2.148-4.498,5.077-8.251,8.776-11.247c3.698-3.003,7.921-5.273,12.669-6.823
		c4.748-1.55,9.776-2.325,15.074-2.325c3.893,0,7.702,0.372,11.4,1.123s7.274,1.703,10.716,2.85
		c3.454,1.147,6.676,2.398,9.679,3.747s5.7,2.624,8.104,3.826L181.682,278.356z"/>
	<path style="fill:#57575A;" d="M282.632,344.942c-3.71,1.904-7.628,3.356-11.778,4.351c-4.15,1.001-8.532,1.501-13.121,1.501
		c-8.104,0-15.452-1.526-22.055-4.577c-6.591-3.045-12.242-7.097-16.941-12.144c-4.699-5.047-8.348-10.826-10.948-17.325
		c-2.6-6.499-3.906-13.2-3.906-20.096c0-7,1.355-13.749,4.052-20.249c2.697-6.499,6.469-12.248,11.327-17.246
		c4.846-4.998,10.594-8.971,17.246-11.925c6.652-2.948,13.926-4.424,21.823-4.424c8.092,0,15.452,1.575,22.043,4.723
		c6.603,3.149,12.254,7.274,16.953,12.376c4.699,5.096,8.324,10.899,10.875,17.399c2.551,6.499,3.82,13.145,3.82,19.944
		c0,6.603-1.172,12.925-3.527,18.973c-2.344,6.054-5.676,11.473-9.972,16.276l16.197,17.545h-27.291L282.632,344.942z
		 M258.026,324.846c2.197,0,4.052-0.195,5.553-0.598l-17.551-19.199h27.303l5.846,6.451c1.098-2.301,1.892-4.699,2.404-7.201
		c0.488-2.496,0.745-5.047,0.745-7.647c0-3.601-0.5-7.073-1.501-10.423s-2.526-6.322-4.577-8.922c-2.05-2.6-4.601-4.675-7.641-6.225
		c-3.051-1.55-6.627-2.325-10.728-2.325c-4.199,0-7.824,0.824-10.875,2.471c-3.051,1.654-5.578,3.802-7.567,6.451
		c-2.002,2.648-3.479,5.651-4.431,9.001s-1.428,6.774-1.428,10.271c0,3.601,0.5,7.073,1.501,10.423s2.502,6.328,4.504,8.922
		c2.002,2.606,4.516,4.675,7.567,6.225C250.202,324.077,253.827,324.846,258.026,324.846z"/>
</g>
<g>
	<path style="fill:#333333;" d="M324.472,350.044V243.559h29.244v80.988H402v25.497H324.472z"/>
	<path style="fill:#333333;" d="M298.523,332.499c4.296-4.803,7.628-10.222,9.972-16.276c2.356-6.048,3.527-12.37,3.527-18.973
		c0-6.798-1.269-13.444-3.82-19.943c-2.551-6.5-6.176-12.303-10.875-17.399c-4.699-5.102-10.35-9.227-16.953-12.376
		c-6.591-3.149-13.951-4.724-22.043-4.724c-0.785,0-1.559,0.026-2.331,0.055v25.958c0.615-0.038,1.238-0.064,1.88-0.064
		c4.101,0,7.677,0.775,10.728,2.325c3.039,1.55,5.59,3.625,7.641,6.225s3.576,5.571,4.577,8.922
		c1.001,3.35,1.501,6.823,1.501,10.423c0,2.6-0.256,5.151-0.745,7.646c-0.513,2.502-1.306,4.9-2.404,7.201l-5.846-6.45H256v10.908
		l7.58,8.291c-1.501,0.403-3.357,0.598-5.553,0.598c-0.693,0-1.364-0.029-2.026-0.071v25.978c0.577,0.016,1.149,0.041,1.733,0.041
		c4.589,0,8.971-0.5,13.121-1.501c4.15-0.995,8.068-2.447,11.778-4.351l4.797,5.102h27.291L298.523,332.499z"/>
</g>
<g>
</g>
<g>
</g>
<g>
</g>
<g>
</g>
<g>
</g>
<g>
</g>
<g>
</g>
<g>
</g>
<g>
</g>
<g>
</g>
<g>
</g>
<g>
</g>
<g>
</g>
<g>
</g>
<g>
</g>
</svg>
