<svg height="512pt" viewBox="0 0 512 512" width="512pt" xmlns="http://www.w3.org/2000/svg"><path d="M215.883 219.215h-89.164a7.548 7.548 0 0 0-7.547 7.55v53.891a7.55 7.55 0 0 0 7.547 7.551h89.164a7.548 7.548 0 0 0 7.547-7.55v-53.891a7.548 7.548 0 0 0-7.547-7.551zm0 0" fill="#d0cfd1"/><path d="M321.34 0H21.262C9.539 0 0 9.54 0 21.262V234.09c0 11.722 9.54 21.262 21.262 21.262H321.34c11.723 0 21.262-9.54 21.262-21.262V21.262C342.602 9.539 333.062 0 321.34 0zm0 0" fill="#fff4f1"/><path d="M321.34 0h-24.156c11.726 0 21.265 9.54 21.265 21.262V234.09c0 11.722-9.539 21.262-21.265 21.262h24.156c11.723 0 21.262-9.54 21.262-21.262V21.262C342.602 9.539 333.062 0 321.34 0zm0 0" fill="#ecedef"/><path d="M342.602 49.664V21.262C342.602 9.539 333.062 0 321.34 0H21.262C9.539 0 0 9.54 0 21.262v28.402zm0 0" fill="#f9cd45"/><path d="M321.34 0h-24.156c11.726 0 21.265 9.54 21.265 21.262v28.402h24.153V21.262C342.602 9.539 333.062 0 321.34 0zm0 0" fill="#f8c03c"/><path d="M0 205.688v28.402c0 11.722 9.54 21.262 21.262 21.262H321.34c11.722 0 21.262-9.54 21.262-21.262v-28.403zm0 0" fill="#f9cd45"/><path d="M250.031 279.117c-3.883-3.988-9.422-6.008-16.46-6.008H109.1c-7.199 0-12.828 2.051-16.726 6.094-6.207 6.434-5.867 15.656-5.645 21.762.055 1.484.106 2.89.047 3.816a7.558 7.558 0 0 0 2.028 5.645 7.563 7.563 0 0 0 5.507 2.383h154.051a7.552 7.552 0 0 0 7.535-8.032c-.058-.918-.023-2.277.016-3.715.156-6.167.402-15.496-5.883-21.945zm0 0" fill="#c1c1c1"/><path d="M78.168 133.797H53.461a7.55 7.55 0 0 1-7.547-7.55 7.547 7.547 0 0 1 7.547-7.548h24.707a7.548 7.548 0 1 1 0 15.098zm73.602 0h-24.708a7.548 7.548 0 0 1-7.546-7.55 7.544 7.544 0 0 1 7.546-7.548h24.708a7.547 7.547 0 0 1 7.546 7.547 7.55 7.55 0 0 1-7.546 7.55zm67.433 0h-24.707a7.55 7.55 0 0 1-7.547-7.55 7.547 7.547 0 0 1 7.547-7.548h24.707a7.547 7.547 0 0 1 7.547 7.547 7.55 7.55 0 0 1-7.547 7.55zm69.937 0h-24.706a7.55 7.55 0 0 1-7.547-7.55 7.547 7.547 0 0 1 7.547-7.548h24.707a7.548 7.548 0 1 1 0 15.098zm0 0" fill="#d0cfd1"/><path d="M431.79 28.559c-37.661 0-68.302 30.636-68.302 68.296 0 37.66 30.64 68.297 68.301 68.297 37.656 0 68.297-30.636 68.297-68.297 0-37.66-30.64-68.296-68.297-68.296zm0 0" fill="#00bf9e"/><path d="M431.79 28.559c-4.126 0-8.157.386-12.08 1.09 31.915 5.722 56.22 33.667 56.22 67.206 0 33.54-24.305 61.485-56.22 67.207a68.356 68.356 0 0 0 12.08 1.09c37.655 0 68.296-30.636 68.296-68.297 0-37.66-30.64-68.296-68.297-68.296zm0 0" fill="#00a983"/><path d="M425.93 118.43c-.086 0-.172 0-.258-.004a7.554 7.554 0 0 1-5.629-2.82l-14.188-17.672a7.553 7.553 0 0 1 1.16-10.614c3.25-2.61 8-2.09 10.614 1.16l8.703 10.84 19.957-21.613a7.55 7.55 0 0 1 11.09 10.246L431.477 116a7.543 7.543 0 0 1-5.547 2.43zm0 0" fill="#fff4f1"/><path d="M106.996 98.031H90.68c-11.063 0-20.063 8.996-20.063 20.059v16.316c0 11.059 9 20.059 20.063 20.059h16.316c11.059 0 20.059-9 20.059-20.059V118.09c0-11.063-9-20.059-20.059-20.059zm73.598 0h-16.317c-11.058 0-20.058 8.996-20.058 20.059v16.316c0 11.059 9 20.059 20.058 20.059h16.317c11.062 0 20.062-9 20.062-20.059V118.09c0-11.063-9-20.059-20.062-20.059zm69.941 0H234.22c-11.063 0-20.059 8.996-20.059 20.059v16.316c0 11.059 8.996 20.059 20.059 20.059h16.316c11.059 0 20.059-9 20.059-20.059V118.09c0-11.063-9-20.059-20.059-20.059zm0 0" fill="#d0cfd1"/><path d="M106.996 98.031H90.68c-1.344 0-2.653.137-3.922.39 9.191 1.829 16.14 9.95 16.14 19.669v16.316c0 9.719-6.949 17.84-16.14 19.668 1.27.254 2.578.39 3.922.39h16.316c11.059 0 20.059-9 20.059-20.058V118.09c0-11.063-9-20.059-20.059-20.059zm73.598 0h-16.317c-1.34 0-2.648.137-3.918.39 9.188 1.829 16.141 9.95 16.141 19.669v16.316c0 9.719-6.953 17.84-16.14 19.668a19.93 19.93 0 0 0 3.917.39h16.317c11.062 0 20.062-9 20.062-20.058V118.09c0-11.063-9-20.059-20.062-20.059zm69.941 0H234.22c-1.34 0-2.653.137-3.922.39 9.191 1.829 16.14 9.95 16.14 19.669v16.316c0 9.719-6.949 17.84-16.14 19.668 1.27.254 2.582.39 3.922.39h16.316c11.059 0 20.059-9 20.059-20.058V118.09c0-11.063-9-20.059-20.059-20.059zm0 0" fill="#c4c3c4"/><path d="M384.82 419.414h-89.164a7.544 7.544 0 0 0-7.547 7.547v53.894a7.544 7.544 0 0 0 7.547 7.547h89.164a7.547 7.547 0 0 0 7.547-7.547v-53.894a7.547 7.547 0 0 0-7.547-7.547zm0 0" fill="#d0cfd1"/><path d="M490.277 200.2H190.2c-11.722 0-21.261 9.534-21.261 21.26v212.825c0 11.727 9.539 21.262 21.261 21.262h300.078c11.723 0 21.262-9.535 21.262-21.262V221.461c0-11.727-9.539-21.262-21.262-21.262zm0 0" fill="#fff4f1"/><path d="M490.277 200.2h-24.156c11.723 0 21.262 9.534 21.262 21.26v212.825c0 11.727-9.54 21.262-21.262 21.262h24.156c11.723 0 21.262-9.535 21.262-21.262V221.461c0-11.727-9.539-21.262-21.262-21.262zm0 0" fill="#ecedef"/><path d="M511.54 249.86v-28.4c0-11.722-9.54-21.26-21.263-21.26H190.2c-11.722 0-21.261 9.538-21.261 21.26v28.4zm0 0" fill="#4890e3"/><path d="M490.277 200.2h-24.156c11.723 0 21.262 9.534 21.262 21.26v28.4h24.156v-28.4c0-11.726-9.539-21.26-21.262-21.26zm0 0" fill="#2970d6"/><path d="M168.938 405.887v28.398c0 11.727 9.539 21.262 21.261 21.262h300.078c11.723 0 21.262-9.535 21.262-21.262v-28.398zm0 0" fill="#4890e3"/><path d="M487.383 434.285c0 11.727-9.54 21.262-21.262 21.262h24.156c11.723 0 21.262-9.535 21.262-21.262v-28.398h-24.156zm0 0" fill="#2970d6"/><path d="M418.965 478.309c-3.883-3.989-9.422-6.008-16.457-6.008H278.039c-7.203 0-12.828 2.047-16.726 6.09-6.208 6.437-5.872 15.66-5.645 21.761.055 1.489.105 2.891.047 3.817a7.546 7.546 0 0 0 7.531 8.031h154.055a7.537 7.537 0 0 0 5.504-2.387 7.532 7.532 0 0 0 2.027-5.644c-.059-.922-.02-2.278.016-3.715.16-6.168.402-15.496-5.883-21.945zm0 0" fill="#c1c1c1"/><path d="M418.965 478.309c-3.883-3.989-9.422-6.008-16.457-6.008h-23.149c7.036 0 12.575 2.02 16.457 6.008 6.286 6.449 6.043 15.777 5.883 21.945-.039 1.437-.074 2.797-.015 3.715a7.561 7.561 0 0 1-2.028 5.648 7.563 7.563 0 0 1-5.508 2.383h23.149a7.563 7.563 0 0 0 5.508-2.383 7.561 7.561 0 0 0 2.027-5.648c-.059-.918-.023-2.278.016-3.715.16-6.168.402-15.496-5.883-21.945zm0 0" fill="#a9a8a9"/><g fill="#d0cfd1"><path d="M247.105 333.992h-24.707a7.548 7.548 0 0 1-7.55-7.547 7.551 7.551 0 0 1 7.55-7.55h24.707a7.55 7.55 0 0 1 7.547 7.55 7.547 7.547 0 0 1-7.547 7.547zm73.598 0h-24.707a7.547 7.547 0 0 1-7.547-7.547 7.55 7.55 0 0 1 7.547-7.55h24.707a7.551 7.551 0 0 1 7.55 7.55 7.548 7.548 0 0 1-7.55 7.547zm67.434 0h-24.703a7.548 7.548 0 0 1-7.551-7.547 7.551 7.551 0 0 1 7.55-7.55h24.704a7.551 7.551 0 0 1 7.55 7.55 7.548 7.548 0 0 1-7.55 7.547zm69.941 0h-24.707a7.548 7.548 0 0 1-7.55-7.547 7.551 7.551 0 0 1 7.55-7.55h24.707a7.55 7.55 0 0 1 7.547 7.55 7.547 7.547 0 0 1-7.547 7.547zm0 0"/><path d="M275.93 298.227h-16.317c-11.058 0-20.058 9-20.058 20.062v16.313c0 11.062 8.996 20.062 20.058 20.062h16.317c11.062 0 20.058-9 20.058-20.062v-16.313c0-11.062-8.996-20.062-20.058-20.062zm73.601 0h-16.316c-11.063 0-20.059 9-20.059 20.062v16.313c0 11.062 8.996 20.062 20.059 20.062h16.316c11.059 0 20.059-9 20.059-20.062v-16.313c0-11.062-9-20.062-20.059-20.062zm69.938 0h-16.317c-11.058 0-20.058 9-20.058 20.062v16.313c0 11.062 8.996 20.062 20.058 20.062h16.317c11.062 0 20.058-9 20.058-20.062v-16.313c0-11.062-8.996-20.062-20.058-20.062zm0 0"/></g><path d="M275.93 298.227h-16.317c-1.34 0-2.648.14-3.918.39 9.188 1.828 16.14 9.95 16.14 19.672v16.313c0 9.718-6.952 17.84-16.14 19.671 1.266.25 2.578.391 3.918.391h16.317c11.062 0 20.058-9 20.058-20.062v-16.313c0-11.062-8.996-20.062-20.058-20.062zm73.601 0h-16.316c-1.34 0-2.653.14-3.922.39 9.191 1.828 16.14 9.95 16.14 19.672v16.313c0 9.718-6.949 17.84-16.14 19.671 1.27.25 2.582.391 3.922.391h16.316c11.059 0 20.059-9 20.059-20.062v-16.313c0-11.062-9-20.062-20.059-20.062zm69.938 0h-16.317c-1.34 0-2.648.14-3.918.39 9.188 1.828 16.137 9.95 16.137 19.672v16.313c0 9.718-6.95 17.84-16.137 19.671 1.266.25 2.579.391 3.918.391h16.317c11.062 0 20.058-9 20.058-20.062v-16.313c0-11.062-8.996-20.062-20.058-20.062zm0 0" fill="#c4c3c4"/></svg>