<svg height="464pt" viewBox="0 0 464.616 464" width="464pt" xmlns="http://www.w3.org/2000/svg"><path d="M396.676 113.191C382.926 51.402 330.434 5.84 267.328.914c-63.11-4.93-122.035 31.934-145.21 90.836-44.759-12.652-92.153 8.598-112.473 50.438-20.32 41.84-7.723 92.23 29.898 119.585 37.617 27.356 89.434 23.805 122.973-8.421 50.863 43.761 125.265 46.421 179.12 6.398 27.481 17.504 62.833 16.594 89.376-2.3s38.972-52 31.43-83.696c-7.544-31.7-33.555-55.652-65.766-60.563zm0 0" fill="#4891d3"/><path d="M384.117 112.07a80 80 0 0 0-67.281 36.72c31.66-20.36 73.226-15.9 99.844 10.718 26.617 26.613 31.078 68.183 10.718 99.844 29.848-19.207 43.477-55.782 33.47-89.836-10.009-34.055-41.255-57.446-76.75-57.446zm0 0" fill="#57b7eb"/><path d="M355.559 117.43a78.752 78.752 0 0 1 28.558-5.36c4.211.004 8.414.38 12.559 1.121-12.238-55.3-55.758-98.289-111.2-109.851-55.445-11.563-112.519 10.453-145.84 56.25A143.995 143.995 0 0 1 261.41 37.074a144 144 0 0 1 94.227 80.356zm-275.442 2.64a95.993 95.993 0 0 1 76.5 38.094 96.012 96.012 0 0 1 15.82 83.984c23.586-30.714 26.407-72.593 7.153-106.191-19.254-33.602-56.809-52.344-95.235-47.527-38.425 4.816-70.195 32.246-80.558 69.558a96 96 0 0 1 76.32-37.918zm0 0" fill="#57b7eb"/><path d="M376.117 272.07c0 79.528-64.472 144-144 144-79.531 0-144-64.472-144-144 0-79.53 64.469-144 144-144 79.528 0 144 64.47 144 144zm0 0" fill="#f9e109"/><path d="M256.117 368.07a143.988 143.988 0 0 1-114.75-57.144 143.983 143.983 0 0 1-23.73-125.977c-35.38 46.074-39.61 108.89-10.73 159.293 28.878 50.403 85.214 78.516 142.85 71.29 57.641-7.223 105.294-48.372 120.84-104.34a144.003 144.003 0 0 1-114.48 56.878zm0 0" fill="#fcbc04"/><path d="M272.117 209.828l-40 40-39.601-40c-6.25-6.25-16.387-6.25-22.641 0-6.25 6.254-6.25 16.39 0 22.64l40 40-40 40c-6.25 6.255-6.25 16.391 0 22.641 6.254 6.254 16.39 6.254 22.64 0l39.602-40 40 40c6.363 6.141 16.5 5.961 22.64-.398 6.141-6.363 5.962-16.5-.402-22.64l-40-40 40-40c4.348-6.356 3.555-14.907-1.89-20.348a15.998 15.998 0 0 0-20.348-1.895zm0 0" fill="#7ab92d"/><path d="M96.117 416.07c0 26.508-21.492 48-48 48-26.512 0-48-21.492-48-48 0-26.511 21.488-48 48-48 26.508 0 48 21.489 48 48zm0 0" fill="#a1d51c"/><path d="M64.117 448.07a48.002 48.002 0 0 1-40.961-72.961C6.102 385.434-2.793 405.227.805 424.832c3.597 19.61 18.941 34.953 38.547 38.55 19.609 3.598 39.402-5.296 49.726-22.35a48.03 48.03 0 0 1-24.96 7.038zm0 0" fill="#7ab92d"/><path d="M48.117 344.07a8 8 0 0 0 8-8v-32a8 8 0 0 0-16 0v32a8 8 0 0 0 8 8zm0 0" fill="#fcbc04"/><path d="M432.117 368.07a8 8 0 1 1-16 0 8 8 0 0 1 16 0zm-8-24a8 8 0 0 0 8-8v-40a8 8 0 0 0-16 0v40a8 8 0 0 0 8 8zm0 0" fill="#a1d51c"/><path d="M65.078 399.11a8.002 8.002 0 0 0-11.281 0l-5.68 5.68-5.68-5.68a7.996 7.996 0 0 0-10.859.421 7.996 7.996 0 0 0-.422 10.86l5.68 5.68-5.68 5.679a8.002 8.002 0 0 0 0 11.281 8.002 8.002 0 0 0 11.282 0l5.68-5.68 5.679 5.68a8.002 8.002 0 0 0 11.281 0 8.002 8.002 0 0 0 0-11.281l-5.68-5.68 5.68-5.68a8.002 8.002 0 0 0 0-11.28zm370.32 12.242l5.68-5.602a8.005 8.005 0 1 0-11.281-11.36l-5.68 5.68-5.68-5.68a8.002 8.002 0 0 0-11.28 0 7.999 7.999 0 0 0 0 11.36l5.679 5.602-5.68 5.68a8.003 8.003 0 0 0-.039 11.32c3.113 3.136 8.184 3.152 11.32.039l5.68-5.68 5.68 5.68a8.007 8.007 0 0 0 11.32-.04c3.113-3.136 3.098-8.206-.039-11.32zM168.117 448.07h-48a8 8 0 0 0 0 16h48a8 8 0 0 0 0-16zm64-16a8 8 0 0 0-8 8v8h-16a8 8 0 0 0 0 16h24a8 8 0 0 0 8-8v-16a8 8 0 0 0-8-8zm0 0" fill="#fcbc04"/><path d="M384.117 400.07h-32a8 8 0 0 0 0 16h32a8 8 0 0 0 0-16zm0 0" fill="#a1d51c"/></svg>