<svg data-name="Layer 1" xmlns="http://www.w3.org/2000/svg" width="128" height="128" viewBox="0 0 128 128"><path d="M126.47 58.12l-26.3-45.74a11.56 11.56 0 0 0-9.86-5.88H37.7a11.55 11.55 0 0 0-9.86 5.88L1.53 58a11.48 11.48 0 0 0 0 11.44l26.3 46a11.77 11.77 0 0 0 9.86 6.09H90.3a11.73 11.73 0 0 0 9.87-6.06l26.3-45.74a11.73 11.73 0 0 0 0-11.61z" fill="#4285f4"/><path d="M85.49 50.55l-36.18 3.33-7 7 6 6-5.95 10.42 44.2 44.2h3.74a11.73 11.73 0 0 0 9.87-6.06l18.33-31.88z" style="isolation:isolate" opacity=".07"/><path d="M84.7 50.27H43.26A1.22 1.22 0 0 0 42 51.48v8.57a1.21 1.21 0 0 0 1.21 1.21H84.7a1.22 1.22 0 0 0 1.21-1.21v-8.57a1.22 1.22 0 0 0-1.21-1.21m-6.41 8a2.48 2.48 0 1 1 2.48-2.48 2.48 2.48 0 0 1-2.48 2.48m6.41 8.47H43.26A1.22 1.22 0 0 0 42 68v8.57a1.22 1.22 0 0 0 1.21 1.21H84.7a1.22 1.22 0 0 0 1.21-1.21v-8.62a1.22 1.22 0 0 0-1.21-1.21m-6.41 8a2.48 2.48 0 1 1 2.48-2.48 2.48 2.48 0 0 1-2.48 2.48" fill="#fff"/></svg>