<svg data-name="Layer 1" xmlns="http://www.w3.org/2000/svg" width="128" height="128" viewBox="0 0 128 128"><path d="M126.47 58.12l-26.3-45.74a11.56 11.56 0 0 0-9.86-5.88H37.7a11.55 11.55 0 0 0-9.86 5.88L1.53 58a11.48 11.48 0 0 0 0 11.44l26.3 46a11.77 11.77 0 0 0 9.86 6.09H90.3a11.73 11.73 0 0 0 9.87-6.06l26.3-45.74a11.73 11.73 0 0 0 0-11.61z" fill="#4285f4"/><path d="M84 45.88l-19.33-6.63-20.46 15.46L57 67.5l-12.83 1.25 12 12L44 82.25l39.27 39.25h7a11.73 11.73 0 0 0 9.87-6.06l19.48-33.88z" style="isolation:isolate" opacity=".07"/><g fill="#fff"><path d="M64 34.23L44 45.78v8.93l20 11.54 20-11.54v-8.93zm11.95 15.88L64 57l-11.94-6.89L64 43.21l11.94 6.89z"/><path d="M44 59.75v8.93l20 11.55 20-11.55v-8.93L64 71.3 44 59.75z"/><path d="M44 73.29v8.93l20 11.55 20-11.55v-8.93L64 84.84 44 73.29z"/></g></svg>