<svg xmlns="http://www.w3.org/2000/svg" viewBox="0 0 56 56"><path d="M36.985 0H7.963C7.155 0 6.5.655 6.5 1.926V55c0 .345.655 1 1.463 1h40.074c.808 0 1.463-.655 1.463-1V12.978c0-.696-.093-.92-.257-1.085L37.607.257A.884.884 0 0 0 36.985 0z" fill="#e9e9e0"/><path fill="#d9d7ca" d="M37.5.151V12h11.849z"/><path d="M48.037 56H7.963A1.463 1.463 0 0 1 6.5 54.537V39h43v15.537c0 .808-.655 1.463-1.463 1.463z" fill="#9777a8"/><path d="M17.021 42.719v7.848c0 .474-.087.873-.26 1.196s-.405.583-.697.779-.627.333-1.005.41a5.845 5.845 0 0 1-1.169.116c-.2 0-.436-.021-.704-.062s-.547-.104-.834-.191-.563-.185-.827-.294-.487-.232-.67-.369l.697-1.107c.091.063.221.13.39.198s.354.132.554.191.41.111.629.157.424.068.615.068c.483 0 .868-.094 1.155-.28s.439-.504.458-.95v-7.711h1.668zm8.163 7.519c0 .364-.075.718-.226 1.06s-.362.643-.636.902-.61.467-1.012.622-.856.232-1.367.232c-.219 0-.444-.012-.677-.034s-.467-.062-.704-.116c-.237-.055-.463-.13-.677-.226s-.398-.212-.554-.349l.287-1.176c.128.073.289.144.485.212s.398.132.608.191.419.107.629.144.405.055.588.055c.556 0 .982-.13 1.278-.39s.444-.645.444-1.155c0-.31-.104-.574-.314-.793s-.472-.417-.786-.595-.654-.355-1.019-.533-.706-.388-1.025-.629-.583-.526-.793-.854-.314-.738-.314-1.23c0-.446.082-.843.246-1.189s.385-.641.663-.882.602-.426.971-.554.759-.191 1.169-.191c.419 0 .843.039 1.271.116s.774.203 1.039.376c-.055.118-.118.248-.191.39l-.205.396c-.063.123-.118.226-.164.308s-.073.128-.082.137c-.055-.027-.116-.063-.185-.109s-.166-.091-.294-.137-.296-.077-.506-.096-.479-.014-.807.014c-.183.019-.355.07-.52.157s-.31.193-.438.321-.228.271-.301.431-.109.313-.109.458c0 .364.104.658.314.882s.47.419.779.588.647.333 1.012.492.704.354 1.019.581.576.513.786.854.318.781.318 1.319zm9.898-2.324c0 .848-.107 1.595-.321 2.242s-.511 1.185-.889 1.613-.82.752-1.326.971-1.06.328-1.661.328-1.155-.109-1.661-.328-.948-.542-1.326-.971-.675-.966-.889-1.613-.321-1.395-.321-2.242.107-1.593.321-2.235.511-1.178.889-1.606.82-.754 1.326-.978 1.06-.335 1.661-.335 1.155.111 1.661.335.948.549 1.326.978.675.964.889 1.606.321 1.387.321 2.235zm-4.238 3.815c.337 0 .658-.066.964-.198s.579-.349.82-.649.431-.695.567-1.183.21-1.082.219-1.784c-.009-.684-.08-1.265-.212-1.743s-.314-.873-.547-1.183-.497-.533-.793-.67-.608-.205-.937-.205c-.337 0-.658.063-.964.191s-.579.344-.82.649-.431.699-.567 1.183c-.137.483-.21 1.075-.219 1.777.009.684.08 1.267.212 1.75s.314.877.547 1.183.497.528.793.67.609.212.937.212zm13.836-8.805V53h-1.668l-3.951-6.945V53h-1.668V42.924h1.668l3.951 6.945v-6.945h1.668z" fill="#fff"/><g fill="#9777a8"><path d="M19.5 19v-4c0-.551.448-1 1-1a1 1 0 1 0 0-2c-1.654 0-3 1.346-3 3v4c0 1.103-.897 2-2 2a1 1 0 1 0 0 2c1.103 0 2 .897 2 2v4c0 1.654 1.346 3 3 3a1 1 0 1 0 0-2c-.552 0-1-.449-1-1v-4c0-1.2-.542-2.266-1.382-3a3.975 3.975 0 0 0 1.382-3z"/><circle cx="27.5" cy="18.5" r="1.5"/><path d="M39.5 21c-1.103 0-2-.897-2-2v-4c0-1.654-1.346-3-3-3a1 1 0 1 0 0 2c.552 0 1 .449 1 1v4c0 1.2.542 2.266 1.382 3a3.975 3.975 0 0 0-1.382 3v4c0 .551-.448 1-1 1a1 1 0 1 0 0 2c1.654 0 3-1.346 3-3v-4c0-1.103.897-2 2-2a1 1 0 1 0 0-2zm-12 3a1 1 0 0 0-1 1v3a1 1 0 1 0 2 0v-3a1 1 0 0 0-1-1z"/></g></svg>