<svg xmlns="http://www.w3.org/2000/svg" viewBox="0 0 509.536 509.536"><path d="M98.858 272.618c2.659-57.191-41.553-101.403-98.744-98.744-2.659 57.191 41.553 101.403 98.744 98.744z" fill="#69914b"/><path d="M91.113 272.733a7.834 7.834 0 0 1-5.56-2.3l-47.158-47.158a7.877 7.877 0 0 1 0-11.12 7.877 7.877 0 0 1 11.12 0l47.158 47.158a7.877 7.877 0 0 1 0 11.12 7.828 7.828 0 0 1-5.56 2.3" fill="#9fc181"/><g fill="#aa623a"><path d="M143.894 344.593a8.98 8.98 0 0 1-7.195-3.593l-53.841-71.806c-2.973-3.97-2.174-9.602 1.796-12.575a8.989 8.989 0 0 1 12.575 1.796l53.841 71.806c2.973 3.97 2.174 9.602-1.796 12.575a8.942 8.942 0 0 1-5.38 1.797"/><path d="M63.043 335.615a8.99 8.99 0 0 1-8.524-6.144c-1.572-4.707.979-9.791 5.686-11.363l53.895-17.965c4.716-1.581 9.791.979 11.363 5.677 1.572 4.707-.979 9.791-5.686 11.363l-53.895 17.965a9.008 9.008 0 0 1-2.839.467M413.359 84.102c0 44.652-60.326 80.842-134.737 80.842s-134.737-36.19-134.737-80.842S204.211 3.259 278.622 3.259 413.359 39.45 413.359 84.102"/></g><g fill="#cb8252"><path d="M278.622 164.944c-74.411 0-134.737-36.199-134.737-80.842v368.281c0 19.842 42.667 53.895 134.737 53.895 94.693 0 134.737-34.052 134.737-53.895V84.102c0 44.642-60.326 80.842-134.737 80.842"/><path d="M278.622 137.996c-46.089 0-80.842-23.175-80.842-53.895 0-4.958 4.024-8.982 8.982-8.982s8.982 4.024 8.982 8.982c0 19.815 28.205 35.93 62.877 35.93 4.958 0 8.982 4.024 8.982 8.982.002 4.959-4.023 8.983-8.981 8.983m71.86-44.912c-4.958 0-8.982-4.024-8.982-8.982 0-19.815-28.205-35.93-62.877-35.93-4.958 0-8.982-4.024-8.982-8.982s4.024-8.982 8.982-8.982c46.089 0 80.842 23.175 80.842 53.895-.001 4.957-4.025 8.981-8.983 8.981"/></g><path d="M413.359 200.873v101.628l42.595 42.595c3.692 3.683 9.665 3.683 13.348 0l37.466-37.466c3.692-3.683 3.692-9.656 0-13.348l-93.409-93.409zM188.798 461.365c-4.958 0-8.982-4.024-8.982-8.982V290.698c0-4.958 4.024-8.982 8.982-8.982 4.958 0 8.982 4.024 8.982 8.982v161.684c0 4.959-4.024 8.983-8.982 8.983M233.71 299.68c-4.958 0-8.982-4.024-8.982-8.982v-53.895c0-4.958 4.024-8.982 8.982-8.982 4.958 0 8.982 4.024 8.982 8.982v53.895c0 4.958-4.024 8.982-8.982 8.982m44.912-35.929c-4.958 0-8.982-4.024-8.982-8.982v-53.895c0-4.958 4.024-8.982 8.982-8.982s8.982 4.024 8.982 8.982v53.895c.001 4.958-4.024 8.982-8.982 8.982m-89.824-8.983c-4.958 0-8.982-4.024-8.982-8.982v-53.895c0-4.958 4.024-8.982 8.982-8.982 4.958 0 8.982 4.024 8.982 8.982v53.895c0 4.958-4.024 8.982-8.982 8.982m179.649 143.719c-4.958 0-8.982-4.024-8.982-8.982v-98.807c0-4.958 4.024-8.982 8.982-8.982 4.958 0 8.982 4.024 8.982 8.982v98.807c0 4.958-4.024 8.982-8.982 8.982m0-143.719c-4.958 0-8.982-4.024-8.982-8.982v-53.895c0-4.958 4.024-8.982 8.982-8.982 4.958 0 8.982 4.024 8.982 8.982v53.895c0 4.958-4.024 8.982-8.982 8.982m-44.913-26.947c-4.958 0-8.982-4.024-8.982-8.982v-26.947c0-4.958 4.024-8.982 8.982-8.982 4.958 0 8.982 4.024 8.982 8.982v26.947c.001 4.958-4.023 8.982-8.982 8.982m-44.912 233.544c-4.958 0-8.982-4.024-8.982-8.982v-26.947c0-4.958 4.024-8.982 8.982-8.982s8.982 4.024 8.982 8.982v26.947c.001 4.958-4.024 8.982-8.982 8.982m89.825 0c-4.958 0-8.982-4.024-8.982-8.982v-17.965c0-4.958 4.024-8.982 8.982-8.982 4.958 0 8.982 4.024 8.982 8.982v17.965c0 4.958-4.024 8.982-8.982 8.982M323.534 299.68c-4.958 0-8.982-4.024-8.982-8.982v-26.947c0-4.958 4.024-8.982 8.982-8.982 4.958 0 8.982 4.024 8.982 8.982v26.947c.001 4.958-4.023 8.982-8.982 8.982m-44.912 89.825c-4.958 0-8.982-4.024-8.982-8.982V299.68c0-4.958 4.024-8.982 8.982-8.982s8.982 4.024 8.982 8.982v80.842c.001 4.959-4.024 8.983-8.982 8.983m-44.912 35.93c-4.958 0-8.982-4.024-8.982-8.982V335.61c0-4.958 4.024-8.982 8.982-8.982 4.958 0 8.982 4.024 8.982 8.982v80.842c0 4.959-4.024 8.983-8.982 8.983m89.824 0c-4.958 0-8.982-4.024-8.982-8.982V335.61c0-4.958 4.024-8.982 8.982-8.982 4.958 0 8.982 4.024 8.982 8.982v80.842c.001 4.959-4.023 8.983-8.982 8.983" fill="#aa623a"/></svg>