<svg height="511pt" viewBox="1 -1 511.999 511" width="511pt" xmlns="http://www.w3.org/2000/svg"><path d="M395.168.5H7.52A7.52 7.52 0 0 0 0 8.02v68.55a7.52 7.52 0 0 0 7.52 7.52h387.648a7.52 7.52 0 0 0 7.52-7.52V8.02a7.52 7.52 0 0 0-7.52-7.52zm0 0" fill="#91bcee"/><path d="M395.168.5h-24.07a7.521 7.521 0 0 1 7.523 7.52v68.55a7.521 7.521 0 0 1-7.523 7.52h24.07a7.52 7.52 0 0 0 7.52-7.52V8.02a7.52 7.52 0 0 0-7.52-7.52zm0 0" fill="#4890e3"/><path d="M128.64 38.703H7.52A7.52 7.52 0 0 0 0 46.223V76.57a7.52 7.52 0 0 0 7.52 7.52h121.12a7.52 7.52 0 0 0 7.52-7.52V46.223a7.52 7.52 0 0 0-7.52-7.52zm154.079 0H161.602a7.521 7.521 0 0 0-7.524 7.52V76.57a7.521 7.521 0 0 0 7.524 7.52h121.117a7.52 7.52 0 0 0 7.52-7.52V46.223a7.52 7.52 0 0 0-7.52-7.52zm0 0" fill="#2970d6"/><path d="M0 76.75v258.934a7.52 7.52 0 0 0 7.52 7.52h387.648a7.52 7.52 0 0 0 7.52-7.52V76.75zm0 0" fill="#d0cfd1"/><path d="M378.621 76.75v258.934a7.521 7.521 0 0 1-7.523 7.52h24.07a7.52 7.52 0 0 0 7.52-7.52V76.75zm0 0" fill="#b0afb1"/><path d="M279.473 198.605h-5.395a72.02 72.02 0 0 0-3.746-16.753l4.887-2.313a7.52 7.52 0 0 0 3.578-10.016 85.744 85.744 0 0 0-31.477-35.68 7.526 7.526 0 0 0-5.672-1 7.547 7.547 0 0 0-4.714 3.302l-2.907 4.566a73.301 73.301 0 0 0-19.843-6.574l.394-5.395a7.52 7.52 0 0 0-6.953-8.047 86.771 86.771 0 0 0-6.293-.23c-14.035 0-27.965 3.472-40.281 10.047a7.524 7.524 0 0 0-3.098 10.176l2.547 4.773a73.963 73.963 0 0 0-15.477 14.016l-4.496-3.008a7.541 7.541 0 0 0-5.644-1.13 7.53 7.53 0 0 0-4.785 3.196 85.397 85.397 0 0 0-14.403 45.403 7.52 7.52 0 0 0 7.328 7.707l5.395.136a71.977 71.977 0 0 0 4.559 20.39l-4.825 2.438a7.52 7.52 0 0 0-3.32 10.106 85.757 85.757 0 0 0 32.383 34.86 7.506 7.506 0 0 0 5.691.85 7.514 7.514 0 0 0 4.63-3.421l2.792-4.637a73.327 73.327 0 0 0 20 6.059l-.254 5.406a7.523 7.523 0 0 0 7.156 7.867 89.42 89.42 0 0 0 4.102.094c14.797 0 29.395-3.84 42.211-11.11a7.515 7.515 0 0 0 3.539-4.538 7.532 7.532 0 0 0-.707-5.711l-2.672-4.707a73.826 73.826 0 0 0 15.113-14.407l4.57 2.89a7.52 7.52 0 0 0 10.38-2.335c8.652-13.68 13.226-29.5 13.226-45.746a7.516 7.516 0 0 0-7.52-7.524zm0 0" fill="#f45a3c"/><path d="M201.332 165.668c-22.312 0-40.46 18.148-40.46 40.46 0 22.31 18.148 40.462 40.46 40.462 22.309 0 40.457-18.153 40.457-40.461 0-22.313-18.148-40.461-40.457-40.461zm0 0" fill="#fff4f1"/><path d="M395.168 339.863c-64.426 0-116.836 52.414-116.836 116.836v45.719a7.521 7.521 0 0 0 7.52 7.523h218.625a7.522 7.522 0 0 0 7.523-7.523v-45.719c0-64.422-52.41-116.836-116.832-116.836zm0 0" fill="#4890e3"/><path d="M395.168 339.863c-4.063 0-8.078.211-12.035.617 58.789 6.043 104.8 55.86 104.8 116.22v45.718a7.522 7.522 0 0 1-7.523 7.523h24.067a7.522 7.522 0 0 0 7.523-7.523v-45.719c0-64.422-52.41-116.836-116.832-116.836zm0 0" fill="#2970d6"/><path d="M395.168 210.023c-39.352 0-71.367 37.184-71.367 82.891 0 45.711 32.015 82.895 71.367 82.895 39.348 0 71.363-37.184 71.363-82.895 0-45.707-32.015-82.89-71.363-82.89zm0 0" fill="#f0bca6"/><path d="M395.168 210.023c-4.105 0-8.121.426-12.035 1.2 33.637 6.668 59.332 40.75 59.332 81.691 0 40.945-25.695 75.027-59.332 81.695 3.914.774 7.93 1.2 12.035 1.2 39.348 0 71.363-37.184 71.363-82.895 0-45.707-32.015-82.89-71.363-82.89zm0 0" fill="#e3ac90"/><path d="M456.352 200.258c-16.454-16.07-38.184-24.918-61.184-24.918-23.008 0-44.734 8.847-61.191 24.918-16.418 16.035-25.79 37.492-26.38 60.418a7.532 7.532 0 0 0 2.133 5.441 7.523 7.523 0 0 0 5.387 2.27h160.094a7.516 7.516 0 0 0 7.52-7.71c-.586-22.927-9.958-44.384-26.38-60.42zm0 0" fill="#f9cd45"/><path d="M456.352 200.258c-16.454-16.07-38.184-24.918-61.184-24.918-4.063 0-8.078.289-12.035.832 18.472 2.527 35.605 10.851 49.152 24.086 16.422 16.035 25.79 37.492 26.38 60.418a7.512 7.512 0 0 1-7.517 7.71h24.067a7.523 7.523 0 0 0 5.387-2.269 7.532 7.532 0 0 0 2.132-5.441c-.59-22.926-9.96-44.383-26.382-60.418zm0 0" fill="#f8c03c"/><path d="M408.324 160.188h-26.316c-7.742 0-14.047 6.3-14.047 14.046v84.032c0 7.746 6.305 14.046 14.047 14.046h26.316c7.746 0 14.047-6.3 14.047-14.046v-84.032c0-7.746-6.3-14.047-14.047-14.047zm0 0" fill="#f9e075"/><path d="M408.324 160.188h-23.066c7.746 0 14.047 6.3 14.047 14.046v84.032c0 7.746-6.301 14.046-14.047 14.046h23.066c7.746 0 14.047-6.3 14.047-14.046v-84.032c0-7.746-6.3-14.047-14.047-14.047zm0 0" fill="#f8c03c"/><path d="M478.969 236.094H311.363c-9.125 0-16.547 7.422-16.547 16.547v21.316c0 9.121 7.422 16.547 16.547 16.547H478.97c9.125 0 16.547-7.426 16.547-16.547v-21.316c0-9.125-7.422-16.547-16.547-16.547zm0 0" fill="#f9e075"/><path d="M478.969 236.094h-24.067c9.125 0 16.547 7.422 16.547 16.547v21.316c0 9.121-7.422 16.547-16.547 16.547h24.067c9.125 0 16.547-7.426 16.547-16.547v-21.316c0-9.125-7.422-16.547-16.547-16.547zm0 0" fill="#f9cd45"/></svg>