<svg xmlns="http://www.w3.org/2000/svg" viewBox="0 0 512 512"><path fill="#dbf1fb" d="M0 67.665h512v376.67H0z"/><path fill="#b7e4f8" d="M256 67.665h256v376.67H256z"/><path fill="#838286" d="M0 67.665h512v90H0z"/><path fill="#ffdb2d" d="M53.33 97.665h30v30h-30z"/><path fill="#6fc8f1" d="M102.33 97.665h30v30h-30z"/><path fill="#56c745" d="M151.33 97.665h30v30h-30z"/><path d="M256 67.665h256v90H256zm-74.318 210.691a81.563 81.563 0 0 0-9.288-4.803c-2.71-1.196-5.737-2.325-9.081-3.375s-6.628-1.574-9.825-1.574c-2.6 0-4.675.403-6.225 1.202-1.55.799-2.319 2.148-2.319 4.046 0 1.404.452 2.551 1.343 3.454.903.897 2.209 1.721 3.906 2.472 1.697.751 3.771 1.477 6.225 2.172 2.453.702 5.224 1.556 8.324 2.551 4.894 1.501 9.325 3.149 13.267 4.949 3.954 1.8 7.323 3.924 10.13 6.377 2.795 2.447 4.943 5.425 6.444 8.922 1.501 3.503 2.246 7.75 2.246 12.749 0 6.402-1.172 11.772-3.515 16.123-2.356 4.351-5.456 7.824-9.3 10.423-3.857 2.6-8.202 4.473-13.047 5.627a63.409 63.409 0 0 1-14.622 1.721c-3.906 0-7.897-.299-11.998-.897a105.286 105.286 0 0 1-12.23-2.551 105.647 105.647 0 0 1-11.693-3.9c-3.747-1.501-7.226-3.198-10.423-5.102l12.596-25.643a88.641 88.641 0 0 0 10.948 5.846c3.198 1.501 6.823 2.85 10.875 4.052s8.178 1.8 12.376 1.8c3.198 0 5.419-.427 6.664-1.276 1.257-.848 1.88-1.971 1.88-3.375 0-1.501-.622-2.777-1.88-3.826-1.245-1.05-2.966-1.971-5.175-2.771-2.197-.799-4.723-1.599-7.567-2.404a158.643 158.643 0 0 1-9.068-2.85c-4.711-1.593-8.751-3.32-12.156-5.169-3.393-1.849-6.2-3.948-8.397-6.304a22.477 22.477 0 0 1-4.87-8.019c-1.05-3.003-1.575-6.451-1.575-10.35 0-5.901 1.074-11.101 3.222-15.598 2.148-4.498 5.077-8.251 8.776-11.247 3.698-3.003 7.921-5.273 12.669-6.823 4.748-1.55 9.776-2.325 15.074-2.325 3.893 0 7.702.372 11.4 1.123s7.274 1.703 10.716 2.85c3.454 1.147 6.676 2.398 9.679 3.747s5.7 2.624 8.104 3.826l-12.61 24.15zm100.95 66.586a52.468 52.468 0 0 1-11.778 4.351c-4.15 1.001-8.532 1.501-13.121 1.501-8.104 0-15.452-1.526-22.055-4.577-6.591-3.045-12.242-7.097-16.941-12.144-4.699-5.047-8.348-10.826-10.948-17.325-2.6-6.499-3.906-13.2-3.906-20.096 0-7 1.355-13.749 4.052-20.249 2.697-6.499 6.469-12.248 11.327-17.246 4.846-4.998 10.594-8.971 17.246-11.925 6.652-2.948 13.926-4.424 21.823-4.424 8.092 0 15.452 1.575 22.043 4.723 6.603 3.149 12.254 7.274 16.953 12.376 4.699 5.096 8.324 10.899 10.875 17.399 2.551 6.499 3.82 13.145 3.82 19.944 0 6.603-1.172 12.925-3.527 18.973a52.829 52.829 0 0 1-9.972 16.276l16.197 17.545h-27.291l-4.797-5.102zm-24.606-20.096c2.197 0 4.052-.195 5.553-.598l-17.551-19.199h27.303l5.846 6.451a31.127 31.127 0 0 0 2.404-7.201 39.78 39.78 0 0 0 .745-7.647c0-3.601-.5-7.073-1.501-10.423s-2.526-6.322-4.577-8.922c-2.05-2.6-4.601-4.675-7.641-6.225-3.051-1.55-6.627-2.325-10.728-2.325-4.199 0-7.824.824-10.875 2.471-3.051 1.654-5.578 3.802-7.567 6.451-2.002 2.648-3.479 5.651-4.431 9.001s-1.428 6.774-1.428 10.271c0 3.601.5 7.073 1.501 10.423s2.502 6.328 4.504 8.922c2.002 2.606 4.516 4.675 7.567 6.225 3.052 1.556 6.677 2.325 10.876 2.325z" fill="#57575a"/><path d="M324.472 350.044V243.559h29.244v80.988H402v25.497h-77.528zm-25.949-17.545a52.829 52.829 0 0 0 9.972-16.276c2.356-6.048 3.527-12.37 3.527-18.973 0-6.798-1.269-13.444-3.82-19.943-2.551-6.5-6.176-12.303-10.875-17.399-4.699-5.102-10.35-9.227-16.953-12.376-6.591-3.149-13.951-4.724-22.043-4.724-.785 0-1.559.026-2.331.055v25.958a30.328 30.328 0 0 1 1.88-.064c4.101 0 7.677.775 10.728 2.325 3.039 1.55 5.59 3.625 7.641 6.225s3.576 5.571 4.577 8.922c1.001 3.35 1.501 6.823 1.501 10.423 0 2.6-.256 5.151-.745 7.646a31.175 31.175 0 0 1-2.404 7.201l-5.846-6.45H256v10.908l7.58 8.291c-1.501.403-3.357.598-5.553.598-.693 0-1.364-.029-2.026-.071v25.978c.577.016 1.149.041 1.733.041 4.589 0 8.971-.5 13.121-1.501a52.468 52.468 0 0 0 11.778-4.351l4.797 5.102h27.291l-16.198-17.545z" fill="#333"/></svg>