<svg id="Layer_1" data-name="Layer 1" xmlns="http://www.w3.org/2000/svg" width="128" height="128" viewBox="0 0 128 128">
  <title>Cloud Dataflow</title>
  <g>
    <path d="M126.47,58.12l-26.3-45.74A11.56,11.56,0,0,0,90.31,6.5H37.7a11.55,11.55,0,0,0-9.86,5.88L1.53,58a11.48,11.48,0,0,0,0,11.44l26.3,46a11.77,11.77,0,0,0,9.86,6.09H90.3a11.73,11.73,0,0,0,9.87-6.06l26.3-45.74A11.73,11.73,0,0,0,126.47,58.12Z" style="fill: #4285f4"/>
    <path d="M80.37,35.65,64.12,39.46,47.63,35.65l9.05,9.05L42,58.2l3.87,3.87-3.6,4.62,4.51,4.51L42,76.74,55.84,90.53,47.63,92.6l28.9,28.9H90.3a11.73,11.73,0,0,0,9.87-6.06l21.9-38.09Z" style="opacity: 0.070000000298023;isolation: isolate"/>
    <g id="art">
      <g>
        <g>
          <circle cx="83.16" cy="64.15" r="3.57" style="fill: #fff"/>
          <circle cx="44.84" cy="64.15" r="3.57" style="fill: #fff"/>
        </g>
        <g>
          <circle cx="64" cy="58.79" r="3.57" style="fill: #fff"/>
          <circle cx="64" cy="69.51" r="3.57" style="fill: #fff"/>
        </g>
        <polygon points="69.39 41.99 80.37 35.65 75.05 32.58 74.91 32.58 64 38.88 64 38.88 64 38.88 53.09 32.58 52.95 32.58 47.63 35.65 58.61 41.99 42.05 51.5 42.05 58.2 47.7 58.2 47.7 54.61 61.28 46.67 61.28 52.5 66.72 52.5 66.72 46.67 80.27 54.61 80.27 58.2 85.95 58.2 85.95 51.5 69.39 41.99" style="fill: #fff"/>
        <polygon points="80.27 73.63 66.72 81.57 66.72 75.8 61.28 75.8 61.28 81.57 47.7 73.63 47.7 70.04 42.05 70.04 42.05 76.74 58.63 86.25 47.63 92.6 52.95 95.67 53.09 95.67 64 89.37 74.91 95.67 75.05 95.67 80.37 92.6 69.37 86.25 85.95 76.74 85.95 70.04 80.27 70.04 80.27 73.63" style="fill: #fff"/>
      </g>
    </g>
  </g>
</svg>
