<svg height="512pt" viewBox="0 -8 512.001 512" width="512pt" xmlns="http://www.w3.org/2000/svg"><path d="m453.285156 278.746094c-.351562-3.691406-3.214844-6.652344-6.871094-7.269532l-28.191406-4.734374c-4.28125-22.875-13.207031-44.101563-25.875-62.605469l16.546875-23.234375c2.152344-3.019532 2.082031-7.140625-.277343-9.996094-3.902344-4.730469-8.046876-9.332031-12.472657-13.757812-4.425781-4.425782-9.027343-8.566407-13.757812-12.472657-2.859375-2.359375-6.976563-2.429687-9.996094-.277343l-23.234375 16.546874c-18.503906-12.667968-39.726562-21.59375-62.605469-25.875l-4.738281-28.191406c-.613281-3.65625-3.574219-6.519531-7.265625-6.871094-6.105469-.585937-12.285156-.910156-18.546875-.910156-6.257812 0-12.441406.324219-18.546875.910156-3.6875.351563-6.652344 3.214844-7.265625 6.871094l-4.738281 28.191406c-22.875 4.28125-44.097657 13.207032-62.605469 25.875l-23.234375-16.546874c-3.015625-2.152344-7.136719-2.082032-9.996094.277343-4.730469 3.90625-9.328125 8.046875-13.757812 12.472657-4.425781 4.425781-8.566407 9.027343-12.46875 13.757812-2.359375 2.859375-2.433594 6.976562-.28125 9.996094l16.550781 23.234375c-12.667969 18.503906-21.59375 39.730469-25.878906 62.605469l-28.1875 4.734374c-3.65625.613282-6.519532 3.578126-6.871094 7.269532-.585938 6.105468-.910156 12.285156-.910156 18.546875 0 6.257812.324218 12.441406.910156 18.542969.351562 3.691406 3.214844 6.65625 6.871094 7.269531l28.1875 4.734375c4.285156 22.878906 13.210937 44.101562 25.878906 62.609375l-16.550781 23.230469c-2.152344 3.019531-2.078125 7.140624.28125 9.996093 3.902343 4.734375 8.042969 9.332031 12.46875 13.757813 4.425781 4.425781 9.027343 8.570312 13.757812 12.472656 2.859375 2.359375 6.980469 2.429688 9.996094.28125l23.234375-16.550781c18.507812 12.667969 39.730469 21.59375 62.605469 25.878906l4.738281 28.191406c.613281 3.652344 3.578125 6.515625 7.265625 6.871094 6.109375.582031 12.289063.90625 18.546875.90625 6.261719 0 12.441406-.324219 18.546875-.90625 3.691406-.355469 6.652344-3.21875 7.265625-6.871094l4.738281-28.191406c22.878907-4.285156 44.101563-13.210937 62.605469-25.878906l23.234375 16.550781c3.019531 2.148438 7.136719 2.078125 9.996094-.28125 4.730469-3.902344 9.332031-8.046875 13.757812-12.472656 4.425781-4.425782 8.570313-9.023438 12.472657-13.757813 2.359374-2.855469 2.429687-6.976562.277343-9.996093l-16.546875-23.230469c12.667969-18.507813 21.59375-39.730469 25.875-62.609375l28.191406-4.734375c3.65625-.613281 6.519532-3.578125 6.871094-7.269531.585938-6.105469.910156-12.285157.910156-18.542969 0-6.261719-.324218-12.445313-.910156-18.546875zm-197.285156 109.382812c-50.167969 0-90.839844-40.667968-90.839844-90.839844 0-50.167968 40.671875-90.835937 90.839844-90.835937s90.839844 40.667969 90.839844 90.839844c0 50.167969-40.671875 90.835937-90.839844 90.835937zm0 0" fill="#b6b1b7"/><path d="m256 173.417969c-68.410156 0-123.871094 55.460937-123.871094 123.871093 0 68.414063 55.460938 123.871094 123.871094 123.871094s123.871094-55.457031 123.871094-123.871094c0-68.410156-55.460938-123.871093-123.871094-123.871093zm0 214.710937c-50.167969 0-90.839844-40.667968-90.839844-90.839844 0-50.167968 40.671875-90.835937 90.839844-90.835937s90.839844 40.667969 90.839844 90.839844c0 50.167969-40.671875 90.835937-90.839844 90.835937zm0 0" fill="#9b959d"/><path d="m429.417969 313.808594c8.378906 0 16.523437-1.175782 24.300781-3.140625.3125-4.429688.472656-8.867188.472656-13.375 0-6.261719-.324218-12.441407-.90625-18.546875-.355468-3.691406-3.21875-6.652344-6.871094-7.269532l-28.191406-4.734374c-4.285156-22.875-13.207031-44.101563-25.875-62.605469l16.546875-23.234375c2.152344-3.019532 2.082031-7.140625-.277343-9.996094-3.90625-4.730469-8.046876-9.332031-12.472657-13.757812-4.425781-4.425782-9.027343-8.566407-13.757812-12.472657-2.859375-2.359375-6.976563-2.429687-9.996094-.277343l-23.234375 16.546874c-18.503906-12.667968-39.730469-21.59375-62.605469-25.875l-4.738281-28.191406c-.613281-3.65625-3.578125-6.519531-7.265625-6.871094-6.105469-.585937-12.289063-.910156-18.546875-.910156s-12.441406.324219-18.546875.910156c-3.6875.351563-6.652344 3.214844-7.265625 6.871094l-4.738281 28.191406c-22.875 4.28125-44.101563 13.207032-62.605469 25.875l-23.234375-16.546874c-3.019531-2.152344-7.136719-2.082032-9.996094.277343-4.730469 3.90625-9.332031 8.046875-13.757812 12.472657-4.425781 4.425781-8.566407 9.027343-12.472657 13.757812-2.359374 2.859375-2.429687 6.976562-.277343 9.996094l16.546875 23.234375c-12.667969 18.503906-21.589844 39.730469-25.875 62.605469l-28.191406 4.734374c-3.65625.613282-6.515626 3.578126-6.871094 7.269532-.582032 6.105468-.90625 12.285156-.90625 18.546875 0 2.070312.042968 4.121093.109375 6.175781 15.148437 6.613281 31.878906 10.339844 49.4375 10.339844h59.300781c-.988281-5.363282-1.496094-10.867188-1.496094-16.515625 0-50.171875 40.671875-90.839844 90.839844-90.839844s90.839844 40.667969 90.839844 90.839844c0 5.648437-.511719 11.152343-1.5 16.515625zm0 0" fill="#9b959d"/><path d="m378.777344 313.808594c.722656-5.417969 1.09375-10.902344 1.09375-16.515625 0-68.414063-55.460938-123.871094-123.871094-123.871094s-123.871094 55.457031-123.871094 123.871094c0 5.613281.367188 11.097656 1.089844 16.515625h33.4375c-.988281-5.363282-1.496094-10.867188-1.496094-16.515625 0-50.171875 40.671875-90.839844 90.839844-90.839844s90.839844 40.667969 90.839844 90.839844c0 5.648437-.511719 11.152343-1.5 16.515625zm0 0" fill="#857e87"/><path d="m454.007812 135.851562c.066407-1.238281.1875-2.464843.1875-3.722656 0-36.484375-29.578124-66.0625-66.066406-66.0625-10.480468 0-20.355468 2.503906-29.160156 6.847656-25.910156-43.597656-73.34375-72.914062-127.742188-72.914062-58.519531 0-108.992187 33.898438-133.238281 83.054688-54.894531 4.753906-97.988281 50.753906-97.988281 106.882812 0 59.289062 48.066406 107.355469 107.355469 107.355469h322.066406c45.605469 0 82.578125-36.972657 82.578125-82.582031 0-37.046876-24.394531-68.394532-57.992188-78.859376zm0 0" fill="#edf4ff"/><path d="m173.417969 280.773438c-63.851563 0-115.613281-51.761719-115.613281-115.613282 0-31.652344 12.824218-60.421875 33.429687-81.300781-51.582031 7.828125-91.234375 52.308594-91.234375 106.078125 0 59.289062 48.066406 107.355469 107.355469 107.355469h322.066406c18.546875 0 35.761719-6.191407 49.550781-16.515625h-305.554687zm0 0" fill="#dbeaff"/><g fill="#ff8086"><path d="m183.976562 120.621094c-2.832031-7.933594-10.386718-13.265625-18.816406-13.265625-8.425781 0-15.984375 5.332031-18.804687 13.257812l-38.515625 107.835938c-1.539063 4.292969.699218 9.019531 5 10.554687 4.265625 1.515625 9.015625-.714844 10.546875-5l12.792969-35.808594h57.964843l12.789063 35.808594c1.203125 3.375 4.378906 5.484375 7.777344 5.484375.917968 0 1.859374-.15625 2.773437-.484375 4.296875-1.535156 6.539063-6.261718 5-10.554687zm-41.898437 61.054687 19.832031-55.515625c.96875-2.742187 5.527344-2.75 6.511719.007813l19.824219 55.507812zm0 0"/><path d="m282.324219 107.355469h-28.902344c-9.105469 0-16.519531 7.40625-16.519531 16.515625v107.355468c0 4.558594 3.695312 8.257813 8.257812 8.257813 4.566406 0 8.261719-3.699219 8.261719-8.257813v-33.03125h28.902344c25.039062 0 45.417969-20.375 45.417969-45.417968 0-25.046875-20.378907-45.421875-45.417969-45.421875zm0 74.320312h-28.902344v-57.804687h28.902344c15.933593 0 28.902343 12.96875 28.902343 28.902344 0 15.9375-12.96875 28.902343-28.902343 28.902343zm0 0"/><path d="m355.097656 107.355469c-4.566406 0-8.257812 3.699219-8.257812 8.257812v115.613281c0 4.558594 3.691406 8.257813 8.257812 8.257813 4.5625 0 8.257813-3.699219 8.257813-8.257813v-115.613281c0-4.5625-3.695313-8.257812-8.257813-8.257812zm0 0"/></g><path d="m124.542969 181.675781-16.703125 46.773438c-1.539063 4.292969.699218 9.019531 5 10.554687 4.265625 1.515625 9.015625-.714844 10.546875-5l12.792969-35.808594h57.964843l12.789063 35.808594c1.203125 3.375 4.378906 5.484375 7.777344 5.484375.917968 0 1.859374-.15625 2.773437-.484375 4.296875-1.535156 6.539063-6.261718 5-10.554687l-16.703125-46.773438zm0 0" fill="#e5646e"/><path d="m253.417969 231.226562v-33.03125h28.902343c14.074219 0 26.671876-6.4375 35.007813-16.515624h-80.425781v49.546874c0 4.558594 3.695312 8.257813 8.257812 8.257813 4.566406 0 8.257813-3.699219 8.257813-8.257813zm0 0" fill="#e5646e"/><path d="m355.097656 239.484375c-4.5625 0-8.257812-3.695313-8.257812-8.257813v-49.546874h16.515625v49.546874c0 4.5625-3.699219 8.257813-8.257813 8.257813zm0 0" fill="#e5646e"/></svg>