<svg id="Layer_1" data-name="Layer 1" xmlns="http://www.w3.org/2000/svg" width="128" height="128" viewBox="0 0 128 128">
  <title>Cloud SQL</title>
  <path d="M126.47,58.12l-26.3-45.74A11.56,11.56,0,0,0,90.31,6.5H37.7a11.55,11.55,0,0,0-9.86,5.88L1.53,58a11.48,11.48,0,0,0,0,11.44l26.3,46a11.77,11.77,0,0,0,9.86,6.09H90.3a11.73,11.73,0,0,0,9.87-6.06l26.3-45.74A11.73,11.73,0,0,0,126.47,58.12Z" style="fill: #4285f4"/>
  <path d="M84,45.88,64.67,39.25,44.21,54.71,57,67.5,44.17,68.75l12,12L44,82.25,83.27,121.5h7a11.73,11.73,0,0,0,9.87-6.06l19.48-33.88Z" style="opacity: 0.070000000298023;isolation: isolate"/>
  <g>
    <path d="M64,34.23,44,45.78v8.93L64,66.25,84,54.71V45.78ZM75.95,50.11h0L64,57,52.06,50.11h0L64,43.21l11.94,6.89h0Z" style="fill: #fff"/>
    <polygon points="44 59.75 44 68.68 64 80.23 84 68.68 84 59.75 64 71.3 44 59.75" style="fill: #fff"/>
    <polygon points="44 73.29 44 82.22 64 93.77 84 82.22 84 73.29 64 84.84 44 73.29" style="fill: #fff"/>
  </g>
</svg>
