<?xml version="1.0" encoding="iso-8859-1"?>
<!-- Generator: Adobe Illustrator 19.0.0, SVG Export Plug-In . SVG Version: 6.00 Build 0)  -->
<svg version="1.1" id="Capa_1" xmlns="http://www.w3.org/2000/svg" xmlns:xlink="http://www.w3.org/1999/xlink" x="0px" y="0px"
	 viewBox="0 0 512 512" style="enable-background:new 0 0 512 512;" xml:space="preserve">
<polygon style="fill:#FF0021;" points="439.73,130.83 512,256 384,477.7 272.53,477.7 272.53,70.83 "/>
<polygon style="fill:#009AD2;" points="439.73,130.83 384,34.3 256,34.3 111.47,256 328.27,130.83 "/>
<polygon style="fill:#FFB037;" points="272.53,477.7 328.26,381.17 196,166.171 256,477.7 "/>
<polygon style="fill:#FFD237;" points="55.73,159.47 0,256 128,477.7 256,477.7 256,159.47 "/>
<polygon style="fill:#00B8FA;" points="256,130.83 256,34.3 128,34.3 55.73,159.47 111.47,256 "/>
<polygon style="fill:#D1DEE4;" points="328.27,130.83 256,130.83 161,256 256,381.17 328.27,381.17 400.53,256 "/>
<g>
	<polygon style="fill:#EFF6F9;" points="183.73,130.83 111.47,256 183.73,381.17 256,381.17 256,130.83 	"/>
	<path style="fill:#EFF6F9;" d="M256,206l-38.281,50L256,306c27.614,0,50-22.386,50-50S283.614,206,256,206z"/>
</g>
<path style="fill:#FFFFFF;" d="M206,256c0,27.614,22.386,50,50,50V206C228.386,206,206,228.386,206,256z"/>
<g>
</g>
<g>
</g>
<g>
</g>
<g>
</g>
<g>
</g>
<g>
</g>
<g>
</g>
<g>
</g>
<g>
</g>
<g>
</g>
<g>
</g>
<g>
</g>
<g>
</g>
<g>
</g>
<g>
</g>
</svg>
