<svg height="512pt" viewBox="0 0 512 512" width="512pt" xmlns="http://www.w3.org/2000/svg" xmlns:xlink="http://www.w3.org/1999/xlink"><linearGradient id="a" gradientUnits="userSpaceOnUse" x1="0" x2="512" y1="256" y2="256"><stop offset="0" stop-color="#00f2fe"/><stop offset=".0208" stop-color="#03effe"/><stop offset=".2931" stop-color="#24d2fe"/><stop offset=".5538" stop-color="#3cbdfe"/><stop offset=".7956" stop-color="#4ab0fe"/><stop offset="1" stop-color="#4facfe"/></linearGradient><path d="m492 472c-14.59375 0-36.402344-5.433594-57.234375-52.40625-16.542969-37.3125-27.484375-90-36.847656-141.382812-1.980469-10.863282-12.394531-18.066407-23.261719-16.089844-9.703125 1.769531-16.46875 10.265625-16.394531 19.804687-.15625 1.003907-.261719 2.027344-.261719 3.074219v187h-40v-372.519531c9.53125 26.082031 16.824219 57.882812 23.039062 89.390625 2.140626 10.835937 12.664063 17.890625 23.496094 15.75 10.835938-2.136719 17.886719-12.65625 15.75-23.492188-7.511718-38.078125-18.363281-86.273437-35.738281-121.308594-19.691406-39.695312-46.453125-59.820312-79.546875-59.820312-21.390625 0-40.472656 8.492188-56.710938 25.242188-13.007812 13.414062-24.222656 32.128906-34.292968 57.214843-17.570313 43.789063-29.003906 99.847657-41.105469 159.199219-12.066406 59.167969-24.542969 120.351562-43.164063 164.972656-17.21875 41.253906-34.875 56.820313-49.726562 62.421875v-449.050781c0-11.046875-8.953125-20-20-20s-20 8.953125-20 20v472c0 11.046875 8.953125 20 20 20h472c11.046875 0 20-8.953125 20-20s-8.953125-20-20-20zm-94-36.652344c.066406.152344.132812.308594.199219.457032 6.28125 14.164062 13.082031 26.144531 20.542969 36.195312h-20.742188zm-118.804688-392.101562c-.761718 2.113281-1.195312 4.378906-1.195312 6.753906v422h-40v-419.996094c10.367188-10.199218 19.707031-12.003906 27-12.003906 5.03125 0 9.753906 1.132812 14.195312 3.246094zm-81.195312 93.105468v335.648438h-40v-150c0-1.359375-.140625-2.6875-.398438-3.972656 5.125-22.492188 9.832032-45.578125 14.480469-68.378906 8.285157-40.617188 16.246094-79.632813 25.917969-113.296876zm-80 335.648438h-19.378906c6.90625-8.828125 13.339844-19.152344 19.378906-31.121094zm0 0" fill="url(#a)"/></svg>