<?xml version="1.0" encoding="iso-8859-1"?>
<!-- Generator: Adobe Illustrator 19.0.0, SVG Export Plug-In . SVG Version: 6.00 Build 0)  -->
<svg version="1.1" id="Layer_1" xmlns="http://www.w3.org/2000/svg" xmlns:xlink="http://www.w3.org/1999/xlink" x="0px" y="0px"
	 viewBox="0 0 512 512" style="enable-background:new 0 0 512 512;" xml:space="preserve">
<circle style="fill:#88EB92;" cx="255.991" cy="256" r="255.991"/>
<path style="fill:#73D17C;" d="M511.762,245.518C511.908,249,512,252.5,512,256c0,104.016-62.032,193.537-151.113,233.597
	L255.991,384.719l-0.715-33.023L129.379,225.799l-2.162-98.5h18.087l86.185,75.117l134.84-0.99v-74.127h27.214L511.762,245.518z"/>
<path style="fill:#F8F8F8;" d="M118.439,127.299v87.285c0.073,6.212,4.783,10.94,10.94,11.215l22.705,0.018h2.437h87.871v89.924
	h-31.117c-2.822,0-5.241,1.539-6.451,4.087c-1.191,2.547-0.861,5.369,0.935,7.55l44.733,54.72c1.393,1.704,3.299,2.621,5.498,2.621
	c2.217,0,4.123-0.898,5.534-2.621l44.715-54.72c1.796-2.181,2.126-5.003,0.935-7.55c-1.21-2.547-3.628-4.087-6.451-4.087h-31.117
	v-89.924h112.721c6.176,0,11.215-5.04,11.215-11.234v-41.618v-45.667h-27.214v45.667v21.679c0,1.851-1.448,3.61-3.317,3.94h-3.097
	H152.084c-2.859,0-6.341,0.147-6.414-3.94v-67.347H118.439z"/>
<g>
</g>
<g>
</g>
<g>
</g>
<g>
</g>
<g>
</g>
<g>
</g>
<g>
</g>
<g>
</g>
<g>
</g>
<g>
</g>
<g>
</g>
<g>
</g>
<g>
</g>
<g>
</g>
<g>
</g>
</svg>
