<svg height="512pt" viewBox="0 0 512 512" width="512pt" xmlns="http://www.w3.org/2000/svg"><path d="m416 512h-320c-53.023438 0-96-42.976562-96-96v-320c0-53.023438 42.976562-96 96-96h320c53.023438 0 96 42.976562 96 96v320c0 53.023438-42.976562 96-96 96zm0 0" fill="#ffe6e2"/><path d="m256 128c-70.574219 0-128 57.425781-128 128s57.425781 128 128 128 128-57.425781 128-128-57.425781-128-128-128zm0 202.671875c-5.886719 0-10.671875-4.769531-10.671875-10.671875 0-5.886719 4.769531-10.671875 10.671875-10.671875 5.886719 0 10.671875 4.769531 10.671875 10.671875 0 5.886719-4.785156 10.671875-10.671875 10.671875zm16.878906-67.824219c-3.773437 1.746094-6.222656 5.550782-6.222656 9.695313v4.785156c.015625 5.902344-4.769531 10.671875-10.65625 10.671875s-10.671875-4.785156-10.671875-10.671875v-4.785156c0-12.445313 7.3125-23.855469 18.609375-29.070313 10.863281-5.007812 18.71875-18.289062 18.71875-24.800781.015625-14.703125-11.953125-26.671875-26.65625-26.671875s-26.671875 11.96875-26.671875 26.671875c0 5.886719-4.769531 10.671875-10.671875 10.671875-5.886719 0-10.671875-4.785156-10.671875-10.671875 0-26.464844 21.535156-48 48-48s48 21.535156 48 48c.015625 14.398437-12.480469 35.601563-31.105469 44.175781zm0 0" fill="#fc573b"/></svg>