<?xml version="1.0" encoding="iso-8859-1"?>
<!-- Generator: Adobe Illustrator 19.0.0, SVG Export Plug-In . SVG Version: 6.00 Build 0)  -->
<svg version="1.1" id="Layer_1" xmlns="http://www.w3.org/2000/svg" xmlns:xlink="http://www.w3.org/1999/xlink" x="0px" y="0px"
	 viewBox="0 0 512.001 512.001" style="enable-background:new 0 0 512.001 512.001;" xml:space="preserve">
<path style="fill:#C7CFE2;" d="M493.507,459.8c10.214,0,18.495-8.28,18.495-18.495V288.401c0-10.213-8.28-18.493-18.493-18.493
	h-20.54V77.437c0-13.937-11.299-25.236-25.236-25.236H64.27c-13.937,0-25.236,11.299-25.236,25.236v192.471H18.493
	C8.28,269.908,0,278.188,0,288.401v152.905C0,451.52,8.28,459.8,18.495,459.8H493.507z"/>
<rect x="52.361" y="324.04" style="fill:#FFFFFF;" width="178.171" height="81.634"/>
<rect x="52.361" y="324.04" style="opacity:0.1;enable-background:new    ;" width="46.245" height="81.634"/>
<g>
	<rect x="281.471" y="324.04" style="fill:#FFFFFF;" width="178.171" height="81.634"/>
	<rect x="91.704" y="188.276" style="fill:#FFFFFF;" width="138.828" height="81.634"/>
</g>
<rect x="91.704" y="188.276" style="opacity:0.1;enable-background:new    ;" width="46.245" height="81.634"/>
<rect x="281.471" y="188.276" style="fill:#FFFFFF;" width="138.828" height="81.634"/>
<rect x="91.704" y="91.681" style="fill:#78C8E6;" width="328.583" height="54.235"/>
<rect x="91.704" y="91.681" style="opacity:0.1;enable-background:new    ;" width="46.245" height="54.235"/>
<g>
</g>
<g>
</g>
<g>
</g>
<g>
</g>
<g>
</g>
<g>
</g>
<g>
</g>
<g>
</g>
<g>
</g>
<g>
</g>
<g>
</g>
<g>
</g>
<g>
</g>
<g>
</g>
<g>
</g>
</svg>
