<?xml version="1.0" encoding="iso-8859-1"?>
<!-- Generator: Adobe Illustrator 19.0.0, SVG Export Plug-In . SVG Version: 6.00 Build 0)  -->
<svg version="1.1" id="Capa_1" xmlns="http://www.w3.org/2000/svg" xmlns:xlink="http://www.w3.org/1999/xlink" x="0px" y="0px"
	 viewBox="0 0 512 512" style="enable-background:new 0 0 512 512;" xml:space="preserve">
<circle style="fill:#FF6838;" cx="256" cy="256" r="256"/>
<path style="fill:#AE4E32;" d="M512,256c0-12.301-0.887-24.393-2.564-36.231L420.667,131L91.333,381l128.436,128.436
	C231.607,511.113,243.699,512,256,512C397.385,512,512,397.385,512,256z"/>
<rect x="91.33" y="131" style="fill:#FFFFFF;" width="329.33" height="250"/>
<g>
	<rect x="256" y="131" style="fill:#E0E0E0;" width="164.67" height="250"/>
	<rect x="91.33" y="131" style="fill:#E0E0E0;" width="329.33" height="32.17"/>
</g>
<rect x="256" y="131" style="fill:#C0C0C0;" width="164.67" height="32.17"/>
<g>
	<circle style="fill:#FF6838;" cx="111.17" cy="147.08" r="8.917"/>
	<circle style="fill:#FF6838;" cx="137.92" cy="147.08" r="8.917"/>
	<circle style="fill:#FF6838;" cx="164.67" cy="147.08" r="8.917"/>
</g>
<path style="fill:#005C83;" d="M398.935,288.631l12.22-12.22c-6.986-9.995-15.69-18.699-25.685-25.685l-12.22,12.22
	c-8.682-5.628-18.436-9.741-28.888-11.972v-17.289c-5.897-1.043-11.966-1.589-18.162-1.589c-6.196,0-12.265,0.546-18.162,1.589
	v17.289c-10.452,2.23-20.205,6.344-28.888,11.971l-12.22-12.22c-9.995,6.986-18.699,15.69-25.685,25.685l12.22,12.22
	c-5.628,8.682-9.741,18.436-11.972,28.888h-17.289c-1.043,5.897-1.589,11.966-1.589,18.162c0,6.196,0.546,12.265,1.589,18.162
	h17.289c2.23,10.452,6.344,20.205,11.972,28.888l-12.22,12.22c6.986,9.995,15.69,18.699,25.685,25.685l12.22-12.22
	c8.682,5.628,18.436,9.741,28.888,11.972v17.289c5.897,1.043,11.966,1.589,18.162,1.589c6.196,0,12.265-0.546,18.162-1.589v-17.289
	c10.452-2.23,20.205-6.344,28.888-11.972l12.22,12.22c9.995-6.986,18.699-15.69,25.685-25.685l-12.22-12.22
	c5.628-8.683,9.741-18.436,11.972-28.888h17.289c1.043-5.897,1.589-11.966,1.589-18.162c0-6.196-0.546-12.265-1.589-18.162h-17.289
	C408.676,307.067,404.563,297.314,398.935,288.631z M326.2,373.937c-21.128,0-38.256-17.128-38.256-38.256
	s17.128-38.256,38.256-38.256s38.256,17.128,38.256,38.256S347.327,373.937,326.2,373.937z"/>
<path style="fill:#00263F;" d="M428.195,353.844c1.043-5.897,1.589-11.966,1.589-18.163c0-6.196-0.546-12.265-1.589-18.162h-17.289
	c-2.23-10.452-6.344-20.206-11.971-28.888l12.22-12.22c-6.986-9.995-15.69-18.699-25.685-25.685l-12.22,12.22
	c-8.682-5.628-18.436-9.742-28.888-11.972v-17.289c-5.897-1.043-11.966-1.589-18.162-1.589c-0.402,0-0.799,0.022-1.199,0.026v65.333
	c0.399-0.012,0.797-0.03,1.199-0.03c21.128,0,38.256,17.127,38.256,38.255s-17.127,38.256-38.256,38.256
	c-0.402,0-0.8-0.018-1.199-0.03v65.333c0.401,0.004,0.798,0.026,1.199,0.026c6.197,0,12.265-0.546,18.162-1.589v-17.289
	c10.452-2.23,20.205-6.344,28.888-11.972l12.22,12.22c9.995-6.986,18.699-15.69,25.685-25.686l-12.22-12.22
	c5.628-8.683,9.741-18.436,11.971-28.888h17.289V353.844z"/>
<g>
	<path style="fill:#005C83;" d="M142.307,195.804c-0.205-0.204-0.767-0.587-1.688-1.151c-0.92-0.562-2.071-1.151-3.452-1.764
		s-2.89-1.151-4.526-1.611c-1.637-0.46-3.273-0.69-4.91-0.69c-2.148,0-3.797,0.384-4.948,1.151s-1.726,1.893-1.726,3.375
		c0,0.921,0.255,1.688,0.767,2.301c0.511,0.614,1.239,1.164,2.187,1.649c0.945,0.487,2.122,0.934,3.528,1.343
		c1.406,0.41,3.03,0.87,4.872,1.381c2.608,0.717,4.96,1.496,7.057,2.34s3.886,1.893,5.37,3.145c1.482,1.254,2.62,2.775,3.414,4.564
		c0.792,1.791,1.189,3.939,1.189,6.444c0,3.068-0.575,5.665-1.726,7.786c-1.15,2.123-2.673,3.836-4.564,5.14
		c-1.893,1.304-4.079,2.251-6.559,2.838c-2.481,0.587-5.024,0.882-7.633,0.882c-1.995,0-4.027-0.154-6.099-0.46
		c-2.071-0.307-4.104-0.754-6.099-1.342c-1.995-0.587-3.938-1.291-5.83-2.11c-1.893-0.817-3.632-1.764-5.216-2.838l5.523-10.97
		c0.255,0.257,0.945,0.742,2.071,1.458c1.125,0.717,2.505,1.432,4.143,2.148c1.636,0.717,3.477,1.356,5.523,1.918
		c2.045,0.563,4.116,0.844,6.213,0.844c4.449,0,6.674-1.354,6.674-4.066c0-1.022-0.333-1.866-0.997-2.531
		c-0.665-0.664-1.586-1.266-2.762-1.803c-1.177-0.537-2.558-1.036-4.142-1.496c-1.586-0.46-3.325-0.971-5.217-1.534
		c-2.506-0.767-4.679-1.598-6.521-2.493c-1.841-0.894-3.375-1.93-4.603-3.107c-1.228-1.176-2.136-2.531-2.723-4.066
		c-0.589-1.534-0.882-3.324-0.882-5.37c0-2.863,0.537-5.395,1.611-7.594c1.074-2.198,2.532-4.053,4.373-5.562
		c1.841-1.508,3.976-2.646,6.406-3.414c2.428-0.767,4.998-1.151,7.709-1.151c1.943,0,3.835,0.18,5.677,0.537
		c1.841,0.358,3.592,0.819,5.254,1.381c1.662,0.563,3.234,1.202,4.718,1.918c1.483,0.717,2.812,1.432,3.989,2.148L142.307,195.804z"
		/>
	<path style="fill:#005C83;" d="M192.784,231.015c-1.944,1.177-4.002,2.084-6.175,2.723c-2.174,0.639-4.488,0.959-6.942,0.959
		c-3.887,0-7.416-0.779-10.586-2.34c-3.171-1.56-5.895-3.631-8.17-6.214c-2.276-2.582-4.041-5.535-5.293-8.86
		c-1.254-3.324-1.879-6.751-1.879-10.279c0-3.579,0.652-7.031,1.956-10.356c1.304-3.324,3.119-6.264,5.447-8.822
		c2.326-2.557,5.088-4.59,8.285-6.099c3.196-1.508,6.686-2.263,10.471-2.263c3.886,0,7.415,0.805,10.586,2.417
		c3.17,1.611,5.894,3.72,8.169,6.329c2.275,2.608,4.027,5.575,5.255,8.898c1.228,3.325,1.841,6.7,1.841,10.126
		c0,3.375-0.563,6.585-1.688,9.627c-1.125,3.043-2.685,5.818-4.679,8.323l8.285,9.129h-11.89L192.784,231.015z M179.819,223.497
		c1.943,0,3.656-0.384,5.14-1.151l-8.592-9.512h11.813l2.838,3.145c1.278-2.812,1.918-5.804,1.918-8.975
		c0-2.096-0.295-4.129-0.882-6.099c-0.588-1.968-1.445-3.707-2.57-5.216c-1.125-1.508-2.506-2.723-4.143-3.644
		c-1.637-0.921-3.503-1.381-5.6-1.381c-2.2,0-4.117,0.473-5.753,1.419c-1.637,0.947-3.005,2.199-4.104,3.759
		c-1.101,1.561-1.931,3.325-2.493,5.293c-0.563,1.969-0.844,3.977-0.844,6.022c0,2.098,0.293,4.13,0.882,6.099
		c0.587,1.969,1.431,3.708,2.532,5.216c1.099,1.509,2.48,2.723,4.143,3.644C175.766,223.037,177.671,223.497,179.819,223.497z"/>
	<path style="fill:#005C83;" d="M213.265,234.314v-54.465h12.581v43.419h26.389v11.046L213.265,234.314L213.265,234.314z"/>
</g>
<g>
</g>
<g>
</g>
<g>
</g>
<g>
</g>
<g>
</g>
<g>
</g>
<g>
</g>
<g>
</g>
<g>
</g>
<g>
</g>
<g>
</g>
<g>
</g>
<g>
</g>
<g>
</g>
<g>
</g>
</svg>
