<svg height="469.33334pt" viewBox="0 0 469.33334 469.33334" width="469.33334pt" xmlns="http://www.w3.org/2000/svg"><path d="m405.332031 426.667969h-341.332031l128-298.667969h85.332031zm0 0" fill="#b7e8c4"/><path d="m469.332031 149.332031c0-47.128906-105.0625-85.332031-234.664062-85.332031-129.605469 0-234.667969 38.203125-234.667969 85.332031 0 47.128907 105.0625 85.335938 234.667969 85.335938 129.601562 0 234.664062-38.207031 234.664062-85.335938zm0 0" fill="#d6deff"/><path d="m469.332031 149.332031c0-47.128906-105.0625-85.332031-234.664062-85.332031-129.605469 0-234.667969 38.203125-234.667969 85.332031 0 47.128907 105.0625 85.335938 234.667969 85.335938 129.601562 0 234.664062-38.207031 234.664062-85.335938zm0 0" fill="#33527d"/><path d="m448 128c0-35.347656-95.511719-64-213.332031-64-117.820313 0-213.335938 28.652344-213.335938 64s95.515625 64 213.335938 64c117.820312 0 213.332031-28.652344 213.332031-64zm0 0" fill="#5e7599"/><path d="m426.667969 138.667969c0-29.457031-71.636719-53.335938-160-53.335938-88.367188 0-160 23.878907-160 53.335938 0 29.453125 71.632812 53.332031 160 53.332031 88.363281 0 160-23.878906 160-53.332031zm0 0" fill="#435e88"/><path d="m405.332031 426.667969c0-23.566407-76.410156-42.667969-170.664062-42.667969-94.257813 0-170.667969 19.101562-170.667969 42.667969 0 23.5625 76.410156 42.664062 170.667969 42.664062 94.253906 0 170.664062-19.101562 170.664062-42.664062zm0 0" fill="#4cc66e"/><path d="m106.667969 128c0-70.691406 57.304687-128 128-128 70.691406 0 128 57.308594 128 128 0 0-42.667969 21.332031-128 21.332031-85.335938 0-128-21.332031-128-21.332031zm0 0" fill="#5e7599"/><path d="m232.765625 30.859375c-6.9375-12.582031-30.8125-12.71875-53.324219-.304687-22.515625 12.410156-35.140625 32.671874-28.207031 45.253906 6.9375 12.578125 30.8125 12.714844 53.324219.304687 22.515625-12.414062 35.140625-32.671875 28.207031-45.253906zm0 0" fill="#7d8fac"/><path d="m187.550781 25.769531c-7.199219-7.191406-20.59375-5.457031-29.917969 3.875-9.324218 9.332031-11.046874 22.726563-3.847656 29.917969 7.195313 7.191406 20.589844 5.457031 29.914063-3.875s11.046875-22.726562 3.851562-29.917969zm0 0" fill="#adb9ca"/><g fill="#eff2ff"><path d="m170.667969 85.332031c0 11.785157-9.550781 21.335938-21.335938 21.335938-11.78125 0-21.332031-9.550781-21.332031-21.335938 0-11.78125 9.550781-21.332031 21.332031-21.332031 11.785157 0 21.335938 9.550781 21.335938 21.332031zm0 0"/><path d="m256 106.667969c0 11.78125-9.550781 21.332031-21.332031 21.332031-11.785157 0-21.335938-9.550781-21.335938-21.332031 0-11.785157 9.550781-21.335938 21.335938-21.335938 11.78125 0 21.332031 9.550781 21.332031 21.335938zm0 0"/><path d="m341.332031 85.332031c0 11.785157-9.550781 21.335938-21.332031 21.335938s-21.332031-9.550781-21.332031-21.335938c0-11.78125 9.550781-21.332031 21.332031-21.332031s21.332031 9.550781 21.332031 21.332031zm0 0"/></g><path d="m127.988281 448.011719c-7.164062-.015625-13.847656-3.625-17.789062-9.613281-3.941407-5.984376-4.621094-13.546876-1.804688-20.136719l64-149.335938c4.640625-10.832031 17.183594-15.855469 28.015625-11.210937 10.832032 4.644531 15.847656 17.195312 11.195313 28.023437l-64 149.335938c-3.359375 7.847656-11.078125 12.9375-19.617188 12.9375zm0 0" fill="#d5f1dd"/></svg>