<?xml version="1.0" encoding="iso-8859-1"?>
<!-- Generator: Adobe Illustrator 19.0.0, SVG Export Plug-In . SVG Version: 6.00 Build 0)  -->
<svg version="1.1" id="Layer_1" xmlns="http://www.w3.org/2000/svg" xmlns:xlink="http://www.w3.org/1999/xlink" x="0px" y="0px"
	 viewBox="0 0 512 512" style="enable-background:new 0 0 512 512;" xml:space="preserve">
<path style="fill:#50C8EF;" d="M416.911,370.056c-7.37-17.784-18.01-33.705-31.626-47.324l-68.516-68.511
	c-5.494-5.494-9.789-11.919-12.764-19.121c-2.972-7.171-4.483-14.751-4.483-22.52v-86.085h82.97L256.003,0l-126.49,126.495h82.97
	v86.085c0,7.775-1.505,15.36-4.47,22.52c-2.98,7.191-7.281,13.619-12.769,19.116l-68.526,68.521
	c-13.619,13.624-24.261,29.555-31.616,47.314c-7.38,17.8-11.121,36.59-11.121,55.859V512h87.04v-86.09
	c0-7.77,1.51-15.34,4.495-22.541c2.964-7.176,7.26-13.601,12.749-19.09l67.738-67.732l67.732,67.727
	c5.494,5.494,9.795,11.93,12.764,19.09c2.975,7.191,4.48,14.774,4.48,22.546V512h87.04v-86.09
	C428.022,406.661,424.292,387.881,416.911,370.056z"/>
<g>
</g>
<g>
</g>
<g>
</g>
<g>
</g>
<g>
</g>
<g>
</g>
<g>
</g>
<g>
</g>
<g>
</g>
<g>
</g>
<g>
</g>
<g>
</g>
<g>
</g>
<g>
</g>
<g>
</g>
</svg>
