<svg height="512" viewBox="0 0 58 59" width="512" xmlns="http://www.w3.org/2000/svg"><g id="Page-1" fill="none" fill-rule="evenodd"><g id="063---virus-alert" fill-rule="nonzero"><path id="Shape" d="m58 6v38c0 2.209139-1.790861 4-4 4h-50c-2.209139 0-4-1.790861-4-4v-38z" fill="#b0d3f0"/><g fill="#393f4a"><path id="Shape" d="m24.219 27.53c-.1798227.0001269-.3563525-.0482374-.511-.14l-1.04-.62c-2.2357077-1.3504183-3.0619993-4.1898172-1.9-6.529l.336-.682c.2530108-.4776691.8398074-.6678232 1.3248914-.429337.4850841.2384861.6928531.8192795.4691086 1.311337l-.34.691c-.7181939 1.4031493-.2173049 3.1229268 1.142 3.921l1.037.618c.3867367.2304997.5717582.691017.451995 1.1250126s-.5147782.734449-.964995.7339874z"/><path id="Shape" d="m33.781 27.53c-.4502168.0004616-.8452318-.2999918-.964995-.7339874s.0652583-.8945129.451995-1.1250126l1.04-.62c1.3539188-.7975815 1.8526317-2.5115238 1.138-3.911l-.343-.7c-.2237445-.4920575-.0159755-1.0728509.4691086-1.311337.485084-.2384862 1.0718806-.0483321 1.3248914.429337l.34.69c1.1578172 2.3364973.3318483 5.1704402-1.9 6.519l-1.042.622c-.1554224.0926347-.3330658.1413657-.514.141z"/><path id="Shape" d="m21.649 34.85c-.1351272-.0001702-.2688181-.0277248-.393-.081l-4.83-2.07c-1.4722008-.6301483-2.4266811-2.0776064-2.426-3.679v-2.02c0-.5522847.4477153-1 1-1s1 .4477153 1 1v2.02c-.0009415.8012417.476398 1.5257117 1.213 1.841l4.831 2.07c.4363908.1872144.6809442.6555068.5852091 1.12061-.0957352.4651032-.5053554.7987429-.9802091.79839z"/><path id="Shape" d="m13 43.5c-.4213811.0003167-.797746-.2635474-.9411025-.6597936-.1433564-.3962462-.0229398-.8398391.3011025-1.1092064l2.165-1.8c.7187341-.5999124 1.6247999-.9292943 2.561-.931h3.914c.5522847 0 1 .4477153 1 1s-.4477153 1-1 1h-3.914c-.4678013.0002105-.9207286.1643966-1.28.464l-2.166 1.8c-.1790805.1512442-.4056005.2347735-.64.236z"/><path id="Shape" d="m19 59c-.3513418.0002845-.677059-.1838331-.858-.485l-1.681-2.8c-1.003953-1.6903931-.6361472-3.8591354.869-5.124l3.719-3.1c.4244308-.3534622 1.0550378-.2959308 1.4085.1285s.2959308 1.0550378-.1285 1.4085l-3.72 3.1c-.7515253.6300719-.9353245 1.7121152-.434 2.555l1.681 2.8c.1865323.3088373.1922378.6942088.0149301 1.0084329-.1773077.314224-.5101327.5085724-.8709301.5085671z"/><path id="Shape" d="m36.351 34.85c-.4748537.0003529-.8844739-.3332868-.9802091-.79839-.0957351-.4651032.1488183-.9333956.5852091-1.12061l4.83-2.07c.7369937-.3149821 1.2147705-1.0395184 1.214-1.841v-2.02c0-.5522847.4477153-1 1-1s1 .4477153 1 1v2.02c.0010816 1.6017569-.9534649 3.0497089-2.426 3.68l-4.83 2.07c-.1242536.052932-.2579418.0801459-.393.08z"/><path id="Shape" d="m45 43.5c-.2337763.0001755-.460226-.0815586-.64-.231l-2.166-1.8c-.3585782-.3014061-.8115757-.4673872-1.28-.469h-3.914c-.5522847 0-1-.4477153-1-1s.4477153-1 1-1h3.914c.9357032.0005825 1.8417132.3285292 2.561.927l2.165 1.8c.3273175.2686179.4499751.7142669.3062094 1.1125429-.1437657.3982759-.5227868.6628339-.9462094.6604571z"/><path id="Shape" d="m39 59c-.3601643-.0004285-.6922741-.1945017-.869448-.5080746s-.172037-.698196.013448-1.0069254l1.68-2.8c.5023659-.8426415.3193881-1.9252605-.432-2.556l-3.721-3.1c-.4244308-.3534622-.4819622-.9840692-.1285-1.4085.3534623-.4244308.9840692-.4819622 1.4085-.1285l3.72 3.1c1.5050089 1.2655318 1.8719939 3.4348491.867 5.125l-1.68 2.8c-.181435.3003995-.5070612.4837066-.858.483z"/></g><path id="Shape" d="m58 4v4h-58v-4c0-2.209139 1.790861-4 4-4h50c2.209139 0 4 1.790861 4 4z" fill="#285680"/><circle id="Oval" cx="4" cy="4" fill="#e64c3c" r="1"/><circle id="Oval" cx="8" cy="4" fill="#f0c419" r="1"/><circle id="Oval" cx="12" cy="4" fill="#4fba6f" r="1"/><path id="Shape" d="m54 5h-21c-.5522847 0-1-.44771525-1-1s.4477153-1 1-1h21c.5522847 0 1 .44771525 1 1s-.4477153 1-1 1z" fill="#ecf0f1"/><path id="Shape" d="m34 28c0 2.7614237-2.2385763 5-5 5s-5-2.2385763-5-5 2.2385763-5 5-5c1.3281223-.0066909 2.6037831.5179444 3.5429194 1.4570806.9391362.9391363 1.4637715 2.2147971 1.4570806 3.5429194z" fill="#464f5d"/><path id="Shape" d="m37 37v8c.0013842 4.0326671-2.9989619 7.4359168-7 7.94-.6642665.0800032-1.3357335.0800032-2 0-4.0010381-.5040832-7.0013842-3.9073329-7-7.94v-8c-.0021541-2.6806688 1.3429393-5.1829933 3.58-6.66.8661891 1.6379308 2.5671371 2.6625655 4.42 2.6625655s3.5538109-1.0246347 4.42-2.6625655c2.2494878 1.4656195 3.5985073 3.975248 3.58 6.66z" fill="#e64c3c"/><path id="Shape" d="m30 39v13.94c-.6642665.0800032-1.3357335.0800032-2 0v-13.94c0-.5522847.4477153-1 1-1s1 .4477153 1 1z" fill="#c03a2b"/></g></g></svg>